<svg width="664" height="209" viewBox="0 0 664 209" fill="none" xmlns="http://www.w3.org/2000/svg">
<g clip-path="url(#clip0_2460_72536)">
<path d="M206.32 3.92C203.53 1.31 199.36 0 193.8 0C188.24 0 184.07 1.31 181.29 3.92C178.5 6.53 177.11 9.92 177.11 14.09V103.55C177.11 107.73 178.5 111.12 181.29 113.73C184.07 116.34 188.23 117.63 193.8 117.63C199.37 117.63 203.53 116.33 206.32 113.73C209.1 111.12 210.5 107.73 210.5 103.55V14.08C210.5 9.91 209.1 6.52 206.32 3.91V3.92ZM157.02 3.92C154.23 1.31 150.06 0 144.5 0C138.94 0 134.77 1.31 131.99 3.92C129.2 6.53 127.81 9.92 127.81 14.09V37.83H105.64C105.98 35.92 106.28 34.04 106.54 32.22C106.8 30.4 106.93 28.43 106.93 26.35C106.93 23.05 106.59 20.09 105.9 17.48C105.19 14.87 103.93 12.7 102.11 10.96C100.29 9.23 97.8002 7.88 94.6702 6.93C91.5502 5.97 87.4602 5.49 82.4202 5.49H15.3902C11.2102 5.49 7.83023 6.45 5.21023 8.36C2.60023 10.27 1.31023 13.76 1.31023 18.8C1.31023 23.84 2.61023 27.32 5.21023 29.23C7.83023 31.14 11.2102 32.1 15.3902 32.1H68.0802C70.1602 32.1 71.7702 32.45 72.9002 33.15C74.0302 33.84 74.5902 35.4 74.5902 37.84C74.5902 40.11 74.0802 42.36 73.0302 44.63H14.0802C9.91023 44.63 6.52023 45.59 3.91023 47.5C1.30023 49.41 -0.00976562 52.88 -0.00976562 57.93C-0.00976562 61.76 0.780234 64.68 2.33023 66.67C3.90023 68.67 5.99023 70.02 8.59023 70.72C6.85023 73.67 5.63023 76.67 4.93023 79.72C4.24023 82.76 3.90023 86.02 3.90023 89.49C3.90023 97.83 6.72023 103.76 12.3802 107.23C18.0302 110.71 27.1202 112.44 39.6402 112.44C49.5402 112.44 59.7202 111.92 70.1502 110.88C80.5802 109.83 90.8402 107.32 100.92 103.31C105.62 101.4 108.66 99.28 110.05 96.93C111.44 94.57 112.13 91.93 112.13 88.96C112.13 83.41 110.09 79.75 106.01 78.01C101.92 76.28 97.1802 76.28 91.7802 78.01C84.4802 80.45 76.9602 82.36 69.2202 83.75C61.4902 85.15 53.1902 85.83 44.3202 85.83C42.2402 85.83 40.3602 85.49 38.7102 84.8C37.0602 84.11 36.2302 82.53 36.2302 80.1C36.2302 77.32 37.0002 74.36 38.5702 71.23H95.4302C98.3902 71.23 101.04 70.72 103.38 69.67C105.74 68.62 107.43 66.89 108.48 64.46H127.78V98.36C127.78 102.54 129.17 105.92 131.96 108.54C134.74 111.15 138.9 112.44 144.47 112.44C150.04 112.44 154.2 111.14 156.99 108.54C159.77 105.92 161.17 102.54 161.17 98.36V14.08C161.17 9.91 159.77 6.52 156.99 3.91L157.02 3.92Z" fill="black"/>
<path d="M213.23 169.54C211.04 166.92 207.7 165.62 203.18 165.62C200.74 165.62 198.66 166.01 196.92 166.79C195.18 167.58 193.53 168.76 191.97 170.31C183.63 178.65 169.97 182.83 151.02 182.83H148.28C147.32 182.83 146.41 182.74 145.54 182.57C152.14 174.92 155.44 166.05 155.44 155.96C155.44 144.48 151.93 135.44 144.88 128.84C137.85 122.22 127.27 118.92 113.19 118.92C99.1102 118.92 88.5502 122.09 81.5002 128.44C74.4501 134.78 70.9402 143.95 70.9402 155.95C70.9402 166.21 74.1502 175.08 80.5802 182.56C79.7202 182.73 78.8502 182.82 77.9702 182.82H75.3602C56.5902 182.99 42.9202 178.82 34.4102 170.3C32.8502 168.74 31.2002 167.56 29.4602 166.78C27.7202 166.01 25.6302 165.61 23.2002 165.61C18.6802 165.61 15.3302 166.91 13.1702 169.53C10.9802 172.14 9.91016 175.35 9.91016 179.17C9.91016 184.74 11.8602 189.39 15.7802 193.12C19.6802 196.87 24.6502 199.91 30.6502 202.25C36.6502 204.59 43.2502 206.3 50.4702 207.33C57.6802 208.38 64.5002 208.9 70.9502 208.9C78.6002 208.9 85.9402 208.34 92.9802 207.2C100.03 206.07 106.76 204.55 113.19 202.64C119.45 204.55 126.15 206.07 133.27 207.2C140.4 208.34 147.79 208.9 155.44 208.9C161.87 208.9 168.71 208.38 175.92 207.33C183.14 206.3 189.75 204.59 195.75 202.25C201.75 199.9 206.7 196.87 210.61 193.12C214.53 189.39 216.48 184.74 216.48 179.17C216.48 175.34 215.39 172.14 213.23 169.53V169.54ZM120.25 166.79C118.51 169.66 116.16 172.15 113.2 174.23C110.24 172.15 107.89 169.66 106.17 166.79C104.43 163.92 103.55 160.67 103.55 157.02C103.55 152.84 104.43 149.89 106.17 148.15C107.9 146.41 110.24 145.54 113.2 145.54C116.16 145.54 118.51 146.4 120.25 148.15C121.98 149.89 122.86 152.84 122.86 157.02C122.86 160.68 121.98 163.92 120.25 166.79Z" fill="black"/>
<path d="M430.49 3.92C427.62 1.31 423.32 0 417.59 0C411.86 0 407.54 1.31 404.67 3.92C401.8 6.53 400.37 9.92 400.37 14.09V103.55C400.37 107.73 401.8 111.12 404.67 113.73C407.54 116.34 411.85 117.63 417.59 117.63C423.33 117.63 427.62 116.33 430.49 113.73C433.36 111.12 434.8 107.73 434.8 103.55V14.08C434.8 9.91 433.36 6.52 430.49 3.91V3.92ZM383.93 75.12C381.68 73.21 379.07 72.25 376.11 72.25C372.63 72.25 369.94 72.81 368.03 73.94C366.12 75.08 364.2 76.34 362.29 77.73C360.38 79.13 358.03 80.39 355.24 81.52C352.46 82.65 348.38 83.21 342.99 83.21C340.2 83.21 338.02 82.52 336.47 81.13C334.9 79.74 334.12 77.3 334.12 73.83C334.12 66 335.12 58.66 337.12 51.78C339.11 44.92 341.94 38.35 345.6 32.09H368.29C372.46 32.09 375.85 31.13 378.46 29.22C381.07 27.31 382.38 23.84 382.38 18.79C382.38 13.74 381.07 10.26 378.46 8.35C375.85 6.44 372.46 5.48 368.29 5.48H320.55C316.38 5.48 312.99 6.44 310.38 8.35C307.77 10.26 306.46 13.75 306.46 18.79C306.46 24.87 308.56 28.88 312.72 30.78C309.07 38.09 306.46 45.44 304.9 52.83C303.33 60.22 302.46 67.83 302.29 75.65C298.46 77.92 294.32 79.74 289.9 81.13C285.46 82.52 280.55 83.21 275.16 83.21C272.38 83.21 270.21 82.52 268.64 81.13C267.08 79.74 266.29 77.3 266.29 73.83C266.29 66 267.29 58.66 269.29 51.78C271.28 44.92 274.11 38.35 277.77 32.09H288.72C292.9 32.09 296.29 31.13 298.9 29.22C301.51 27.31 302.8 23.84 302.8 18.79C302.8 13.74 301.5 10.26 298.9 8.35C296.29 6.44 292.9 5.48 288.72 5.48H248.82C244.65 5.48 241.26 6.44 238.65 8.35C236.04 10.26 234.73 13.75 234.73 18.79C234.73 22.96 235.65 26.05 237.47 28.04C239.29 30.04 241.69 31.3 244.65 31.83C240.99 39.31 238.39 46.87 236.82 54.52C235.26 62.17 234.48 69.91 234.48 77.73C234.48 88.34 237 96.35 242.04 101.73C247.08 107.11 255.95 109.81 268.65 109.81C276.48 109.81 283.65 108.98 290.17 107.33C296.69 105.68 302.81 103.37 308.56 100.41C313.77 106.67 323.08 109.8 336.46 109.8C343.06 109.8 349.46 109.24 355.63 108.11C361.8 106.98 367.24 105.28 371.94 103.01C376.63 100.76 380.36 97.98 383.15 94.67C385.93 91.37 387.32 87.54 387.32 83.19C387.32 79.72 386.19 77.02 383.93 75.11V75.12Z" fill="black"/>
<path d="M434.8 166.15C437.58 162.14 439.62 158.37 440.93 154.81C442.23 151.25 442.88 147.98 442.88 145.02C442.88 141.02 441.4 137.97 438.45 135.89C435.49 133.81 432.19 132.76 428.53 132.76C424.87 132.76 422.36 133.98 420.45 136.41C418.54 138.85 416.36 141.89 413.93 145.54C404.54 138.92 392.72 133.28 378.45 128.59C364.2 123.89 347.06 121.54 327.07 121.54C312.11 121.54 299.56 122.55 289.38 124.54C279.21 126.54 270.91 129.41 264.48 133.15C258.05 136.9 253.44 141.49 250.65 146.97C247.87 152.45 246.48 158.58 246.48 165.36C246.48 172.14 247.87 178.22 250.65 183.62C253.44 189 258.05 193.56 264.48 197.31C270.91 201.04 279.22 203.91 289.38 205.92C299.56 207.91 312.11 208.92 327.07 208.92C347.06 208.92 364.2 206.71 378.45 202.27C392.72 197.84 404.53 192.41 413.93 185.97C416.37 189.97 418.54 193.27 420.45 195.87C422.36 198.48 425.05 199.79 428.53 199.79C432.18 199.79 435.49 198.74 438.45 196.66C441.4 194.58 442.88 191.52 442.88 187.53C442.88 184.57 442.22 181.27 440.93 177.63C439.62 173.97 437.58 170.15 434.8 166.15ZM370.63 177.5C359.68 180.72 345.15 182.32 327.07 182.32C312.46 182.32 301.12 181.1 293.04 178.67C284.96 176.25 280.91 171.81 280.91 165.37C280.91 158.93 284.96 154.25 293.04 151.81C301.12 149.37 312.47 148.16 327.07 148.16C345.15 148.16 359.68 149.85 370.63 153.24C381.58 156.63 390.19 160.76 396.45 165.63C390.19 170.32 381.58 174.28 370.63 177.5Z" fill="black"/>
<path d="M471.83 203.71C467.66 203.71 464.27 202.75 461.66 200.84C459.05 198.92 457.75 195.45 457.75 190.41C457.75 185.37 459.05 181.89 461.66 179.98C464.27 178.07 467.66 177.11 471.83 177.11H524V100.17C524 96 525.43 92.61 528.3 90C531.17 87.39 535.47 86.09 541.21 86.09C546.95 86.09 551.25 87.39 554.12 90C556.99 92.61 558.42 96 558.42 100.17V177.11H649.71C653.88 177.11 657.27 178.07 659.88 179.98C662.49 181.89 663.79 185.37 663.79 190.41C663.79 195.45 662.49 198.93 659.88 200.84C657.27 202.75 653.88 203.71 649.71 203.71H471.83ZM650.76 21.39C650.76 25.04 650.06 27.83 648.67 29.74C647.28 31.66 645.36 33.05 642.93 33.91V36.52C642.93 54.09 641.93 69.69 639.93 83.34C637.93 96.99 635.19 108.42 631.71 117.64C628.23 126.86 624.15 133.86 619.45 138.64C614.75 143.42 609.71 145.81 604.32 145.81C599.8 145.81 596.5 144.46 594.41 141.77C592.32 139.08 591.28 136.08 591.28 132.77C591.28 129.64 592.19 126.12 594.02 122.21C595.85 118.3 597.8 112.87 599.89 105.91C601.98 98.96 603.93 89.96 605.76 78.91C607.59 67.87 608.5 53.74 608.5 36.53V34.7H492.69C488.52 34.7 485.13 33.75 482.52 31.83C479.91 29.92 478.61 26.44 478.61 21.4C478.61 16.36 479.91 12.88 482.52 10.97C485.13 9.05998 488.52 8.09998 492.69 8.09998H636.67C640.84 8.09998 644.23 9.05998 646.84 10.97C649.45 12.89 650.75 16.36 650.75 21.4L650.76 21.39Z" fill="black"/>
</g>
<defs>
<clipPath id="clip0_2460_72536">
<rect width="663.8" height="208.92" fill="white"/>
</clipPath>
</defs>
</svg>
