<svg width="16" height="17" viewBox="0 0 16 17" fill="none" xmlns="http://www.w3.org/2000/svg">
<path fill-rule="evenodd" clip-rule="evenodd" d="M11.9995 7.69891C11.9995 6.66596 11.5763 5.67812 10.8284 4.96558C9.24497 3.45548 6.75456 3.45548 5.1711 4.96558C4.42324 5.67812 4 6.66596 4 7.69891C4 8.73187 4.42324 9.71971 5.1711 10.4322L7.99977 13.1656L10.8284 10.4322C11.5763 9.71971 11.9995 8.73187 11.9995 7.69891ZM9.12204 8.571C9.42211 8.27918 9.59395 7.8801 9.59974 7.46158C9.58731 6.5903 8.87102 5.89401 7.99974 5.90625C7.12846 5.89401 6.41217 6.5903 6.39974 7.46158C6.40553 7.8801 6.57737 8.27918 6.87744 8.571C7.1775 8.86281 7.58122 9.02346 7.99974 9.01758C8.41826 9.02346 8.82198 8.86281 9.12204 8.571Z" fill="#8C8C8C"/>
</svg>
