<svg width="69" height="68" viewBox="0 0 69 68" fill="none" xmlns="http://www.w3.org/2000/svg">
<g filter="url(#filter0_d_2604_16568)">
<path d="M34 54L23.6077 36L44.3923 36L34 54Z" fill="black"/>
<rect x="10" y="6" width="49" height="36" rx="18" fill="black"/>
<path d="M34.0273 19.4293C32.8999 19.4421 31.22 19.2873 29.6697 18.4838C28.1194 17.6802 27.0098 16.389 26.3581 15.4541C26.2909 15.3578 26.3049 15.2882 26.3231 15.2518C26.3413 15.2155 26.3886 15.1632 26.5047 15.1619C27.6321 15.1491 29.312 15.3039 30.8623 16.1074C32.4126 16.911 33.5222 18.2021 34.1739 19.1371C34.2411 19.2334 34.2272 19.303 34.2089 19.3393C34.1907 19.3757 34.1434 19.428 34.0273 19.4293Z" fill="#E1F452" stroke="black" stroke-width="1.2"/>
<mask id="path-4-inside-1_2604_16568" fill="white">
<path fill-rule="evenodd" clip-rule="evenodd" d="M41.9672 21.5508C41.216 21.5508 40.4916 21.2721 39.9341 20.7685L37.1814 18.2818C35.6585 16.9061 33.3415 16.9061 31.8186 18.2818L29.0659 20.7685C28.5084 21.2721 27.784 21.5508 27.0328 21.5508V21.5508C25.3578 21.5508 24 22.9087 24 24.5837V28.9331C24 31.1422 25.7909 32.9331 28 32.9331H41C43.2091 32.9331 45 31.1422 45 28.9331V24.5837C45 22.9087 43.6422 21.5508 41.9672 21.5508V21.5508Z"/>
</mask>
<path fill-rule="evenodd" clip-rule="evenodd" d="M41.9672 21.5508C41.216 21.5508 40.4916 21.2721 39.9341 20.7685L37.1814 18.2818C35.6585 16.9061 33.3415 16.9061 31.8186 18.2818L29.0659 20.7685C28.5084 21.2721 27.784 21.5508 27.0328 21.5508V21.5508C25.3578 21.5508 24 22.9087 24 24.5837V28.9331C24 31.1422 25.7909 32.9331 28 32.9331H41C43.2091 32.9331 45 31.1422 45 28.9331V24.5837C45 22.9087 43.6422 21.5508 41.9672 21.5508V21.5508Z" fill="#E1F452"/>
<path d="M29.0659 20.7685L29.8703 21.659L29.0659 20.7685ZM39.9341 20.7685L40.7386 19.8781L39.9341 20.7685ZM37.1814 18.2818L37.9858 17.3913L37.1814 18.2818ZM36.377 19.1722L39.1297 21.659L40.7386 19.8781L37.9858 17.3913L36.377 19.1722ZM29.8703 21.659L32.6231 19.1722L31.0142 17.3913L28.2614 19.8781L29.8703 21.659ZM25.2 28.9331V24.5837H22.8V28.9331H25.2ZM41 31.7331H28V34.1331H41V31.7331ZM43.8 24.5837V28.9331H46.2V24.5837H43.8ZM46.2 24.5837C46.2 22.2459 44.3049 20.3508 41.9672 20.3508V22.7508C42.9794 22.7508 43.8 23.5714 43.8 24.5837H46.2ZM41 34.1331C43.8719 34.1331 46.2 31.805 46.2 28.9331H43.8C43.8 30.4795 42.5464 31.7331 41 31.7331V34.1331ZM22.8 28.9331C22.8 31.805 25.1281 34.1331 28 34.1331V31.7331C26.4536 31.7331 25.2 30.4795 25.2 28.9331H22.8ZM27.0328 20.3508C24.6951 20.3508 22.8 22.2459 22.8 24.5837H25.2C25.2 23.5714 26.0206 22.7508 27.0328 22.7508V20.3508ZM28.2614 19.8781C27.9246 20.1824 27.4868 20.3508 27.0328 20.3508V22.7508C28.0812 22.7508 29.0923 22.3618 29.8703 21.659L28.2614 19.8781ZM39.1297 21.659C39.9077 22.3618 40.9188 22.7508 41.9672 22.7508V20.3508C41.5132 20.3508 41.0754 20.1824 40.7386 19.8781L39.1297 21.659ZM37.9858 17.3913C36.006 15.6029 32.994 15.6029 31.0142 17.3913L32.6231 19.1722C33.6891 18.2093 35.3109 18.2093 36.377 19.1722L37.9858 17.3913Z" fill="black" mask="url(#path-4-inside-1_2604_16568)"/>
<mask id="path-6-inside-2_2604_16568" fill="white">
<path fill-rule="evenodd" clip-rule="evenodd" d="M43.4112 15.7878C43.7656 15.219 43.3875 14.5534 42.7256 14.5809C41.5503 14.6298 39.7718 14.8833 38.147 15.8367C36.9904 16.5153 36.097 17.4398 35.4512 18.2806C34.8574 18.1476 34.5785 18.4892 34.4936 18.9301C34.4054 19.3877 34.4988 20.0441 34.7726 20.7885L35.5507 20.9628C35.4838 20.7809 35.4303 20.6077 35.3895 20.4451C35.4169 20.4464 35.4448 20.4465 35.4733 20.4453C36.6485 20.3964 38.427 20.1429 40.0518 19.1895C41.6766 18.2362 42.7819 16.7977 43.4112 15.7878ZM33.8186 19.7537C34.0305 19.8134 34.2708 20.0269 34.3555 20.2307C34.6846 21.0229 35.1375 21.7677 35.5855 22.324C36.0568 22.9095 36.4089 23.1547 36.6001 23.2085C36.7912 23.2624 37.0059 23.1768 37.0513 22.7369C37.0945 22.3188 36.9667 21.6656 36.6377 20.8735C36.553 20.6697 36.6562 20.5529 36.868 20.6126C37.0799 20.6722 37.3203 20.8858 37.405 21.0896C37.77 21.9684 37.9293 22.7317 37.8755 23.2532C37.8239 23.7529 37.5576 24.1298 36.9066 23.9465C36.2557 23.7632 35.5641 23.1164 35.0287 22.4514C34.4699 21.7574 33.9532 20.8934 33.5882 20.0146C33.5035 19.8108 33.6067 19.694 33.8186 19.7537Z"/>
</mask>
<path fill-rule="evenodd" clip-rule="evenodd" d="M43.4112 15.7878C43.7656 15.219 43.3875 14.5534 42.7256 14.5809C41.5503 14.6298 39.7718 14.8833 38.147 15.8367C36.9904 16.5153 36.097 17.4398 35.4512 18.2806C34.8574 18.1476 34.5785 18.4892 34.4936 18.9301C34.4054 19.3877 34.4988 20.0441 34.7726 20.7885L35.5507 20.9628C35.4838 20.7809 35.4303 20.6077 35.3895 20.4451C35.4169 20.4464 35.4448 20.4465 35.4733 20.4453C36.6485 20.3964 38.427 20.1429 40.0518 19.1895C41.6766 18.2362 42.7819 16.7977 43.4112 15.7878ZM33.8186 19.7537C34.0305 19.8134 34.2708 20.0269 34.3555 20.2307C34.6846 21.0229 35.1375 21.7677 35.5855 22.324C36.0568 22.9095 36.4089 23.1547 36.6001 23.2085C36.7912 23.2624 37.0059 23.1768 37.0513 22.7369C37.0945 22.3188 36.9667 21.6656 36.6377 20.8735C36.553 20.6697 36.6562 20.5529 36.868 20.6126C37.0799 20.6722 37.3203 20.8858 37.405 21.0896C37.77 21.9684 37.9293 22.7317 37.8755 23.2532C37.8239 23.7529 37.5576 24.1298 36.9066 23.9465C36.2557 23.7632 35.5641 23.1164 35.0287 22.4514C34.4699 21.7574 33.9532 20.8934 33.5882 20.0146C33.5035 19.8108 33.6067 19.694 33.8186 19.7537Z" fill="#E1F452"/>
<path d="M42.7256 14.5809L42.6757 13.3819L42.6757 13.3819L42.7256 14.5809ZM43.4112 15.7878L42.3927 15.1532L42.3927 15.1532L43.4112 15.7878ZM38.147 15.8367L38.7543 16.8717L38.7543 16.8717L38.147 15.8367ZM35.4512 18.2806L35.189 19.4516L35.9364 19.6189L36.4029 19.0116L35.4512 18.2806ZM34.4936 18.9301L33.3153 18.7031L33.3153 18.7031L34.4936 18.9301ZM34.7726 20.7885L33.6464 21.2027L33.8721 21.8165L34.5103 21.9595L34.7726 20.7885ZM35.5507 20.9628L35.2883 22.1338L37.4371 22.6153L36.6769 20.5486L35.5507 20.9628ZM35.3895 20.4451L35.4471 19.2465L33.8322 19.1689L34.2256 20.7371L35.3895 20.4451ZM35.4733 20.4453L35.4234 19.2463L35.4234 19.2463L35.4733 20.4453ZM40.0518 19.1895L40.6591 20.2245L40.6591 20.2245L40.0518 19.1895ZM34.3555 20.2307L35.4637 19.7704L35.4637 19.7704L34.3555 20.2307ZM33.8186 19.7537L34.1439 18.5986L34.1439 18.5986L33.8186 19.7537ZM35.5855 22.324L34.6508 23.0766L34.6508 23.0766L35.5855 22.324ZM36.6001 23.2085L36.9254 22.0535L36.9254 22.0535L36.6001 23.2085ZM37.0513 22.7369L35.8576 22.6136L35.8576 22.6136L37.0513 22.7369ZM36.6377 20.8735L37.7459 20.4132L37.7459 20.4132L36.6377 20.8735ZM36.868 20.6126L36.5427 21.7676L36.5427 21.7676L36.868 20.6126ZM37.405 21.0896L38.5132 20.6293L38.5132 20.6293L37.405 21.0896ZM37.8755 23.2532L39.0691 23.3765L39.0691 23.3765L37.8755 23.2532ZM36.9066 23.9465L37.2319 22.7914L37.2319 22.7914L36.9066 23.9465ZM35.0287 22.4514L35.9634 21.6989L35.9634 21.6989L35.0287 22.4514ZM33.5882 20.0146L32.48 20.475L32.48 20.475L33.5882 20.0146ZM42.7754 15.7799C42.6664 15.7844 42.4998 15.7183 42.4061 15.5535C42.3142 15.3916 42.3453 15.2293 42.3927 15.1532L44.4297 16.4224C44.8315 15.7775 44.8508 14.998 44.4929 14.368C44.1333 13.735 43.4466 13.3499 42.6757 13.3819L42.7754 15.7799ZM38.7543 16.8717C40.1422 16.0573 41.7001 15.8246 42.7754 15.7799L42.6757 13.3819C41.4006 13.435 39.4015 13.7094 37.5398 14.8017L38.7543 16.8717ZM36.4029 19.0116C36.9871 18.2509 37.7705 17.449 38.7543 16.8717L37.5398 14.8017C36.2104 15.5817 35.2069 16.6287 34.4996 17.5496L36.4029 19.0116ZM35.7134 17.1096C35.1472 16.9828 34.5326 17.0518 34.0311 17.4538C33.5733 17.8207 33.3881 18.3252 33.3153 18.7031L35.6719 19.1572C35.6841 19.0941 35.6808 19.2073 35.5321 19.3265C35.452 19.3907 35.3606 19.4295 35.2781 19.4445C35.2019 19.4584 35.1658 19.4464 35.189 19.4516L35.7134 17.1096ZM33.3153 18.7031C33.1675 19.4699 33.3395 20.3683 33.6464 21.2027L35.8989 20.3743C35.6582 19.7199 35.6433 19.3054 35.6719 19.1572L33.3153 18.7031ZM34.5103 21.9595L35.2883 22.1338L35.8131 19.7919L35.035 19.6175L34.5103 21.9595ZM36.6769 20.5486C36.6236 20.4036 36.5831 20.2712 36.5535 20.1531L34.2256 20.7371C34.2776 20.9442 34.344 21.1582 34.4245 21.3771L36.6769 20.5486ZM35.4234 19.2463C35.4303 19.2461 35.4382 19.246 35.4471 19.2465L35.3319 21.6437C35.3956 21.6468 35.4594 21.6469 35.5232 21.6443L35.4234 19.2463ZM39.4445 18.1545C38.0566 18.9689 36.4987 19.2016 35.4234 19.2463L35.5232 21.6443C36.7983 21.5912 38.7974 21.3169 40.6591 20.2245L39.4445 18.1545ZM42.3927 15.1532C41.8143 16.0815 40.834 17.3393 39.4445 18.1545L40.6591 20.2245C42.5192 19.1331 43.7496 17.5139 44.4297 16.4224L42.3927 15.1532ZM35.4637 19.7704C35.3335 19.457 35.1231 19.2111 34.9318 19.0411C34.7406 18.8712 34.4713 18.6908 34.1439 18.5986L33.4932 20.9087C33.4276 20.8903 33.3872 20.8683 33.371 20.8588C33.3529 20.8481 33.343 20.8399 33.3377 20.8352C33.3325 20.8306 33.3233 20.8218 33.3107 20.8053C33.2994 20.7905 33.2732 20.7534 33.2473 20.6911L35.4637 19.7704ZM36.5202 21.5715C36.1442 21.1045 35.7494 20.4582 35.4637 19.7704L33.2473 20.6911C33.6197 21.5876 34.1309 22.4309 34.6508 23.0766L36.5202 21.5715ZM36.9254 22.0535C37.0055 22.076 37.0444 22.1008 37.0373 22.0966C37.0343 22.0948 37.0091 22.0793 36.9624 22.0407C36.8681 21.9628 36.7181 21.8173 36.5202 21.5715L34.6508 23.0766C34.9242 23.4162 35.1859 23.686 35.4333 23.8905C35.6614 24.0791 35.9481 24.2716 36.2747 24.3636L36.9254 22.0535ZM35.8576 22.6136C35.8504 22.6833 35.8536 22.4523 36.1102 22.2375C36.4079 21.9884 36.7475 22.0033 36.9254 22.0535L36.2747 24.3636C36.6438 24.4675 37.1863 24.4666 37.6504 24.0781C38.0735 23.7241 38.2067 23.2303 38.245 22.8601L35.8576 22.6136ZM35.5295 21.3338C35.6713 21.6753 35.7612 21.9666 35.8109 22.1978C35.8627 22.4387 35.8619 22.5722 35.8576 22.6136L38.245 22.8601C38.3184 22.1487 38.1039 21.2751 37.7459 20.4132L35.5295 21.3338ZM37.1934 19.4575C36.9193 19.3803 36.241 19.2849 35.7421 19.85C35.245 20.4131 35.4208 21.0723 35.5295 21.3338L37.7459 20.4132C37.7698 20.4709 37.955 20.9698 37.5412 21.4384C37.1256 21.9091 36.6049 21.7851 36.5427 21.7676L37.1934 19.4575ZM38.5132 20.6293C38.383 20.3158 38.1726 20.07 37.9812 19.9C37.7901 19.7301 37.5207 19.5497 37.1934 19.4575L36.5427 21.7676C36.4771 21.7491 36.4367 21.7272 36.4205 21.7176C36.4024 21.707 36.3924 21.6988 36.3872 21.6941C36.3819 21.6895 36.3727 21.6806 36.3602 21.6641C36.3489 21.6493 36.3227 21.6123 36.2968 21.55L38.5132 20.6293ZM39.0691 23.3765C39.1533 22.5615 38.9072 21.5778 38.5132 20.6293L36.2968 21.55C36.6328 22.3589 36.7054 22.9019 36.6818 23.13L39.0691 23.3765ZM36.5813 25.1016C37.1595 25.2644 37.849 25.2417 38.4016 24.7629C38.8888 24.3408 39.0294 23.7617 39.0691 23.3765L36.6818 23.13C36.6777 23.1701 36.6727 23.1693 36.6846 23.1404C36.6974 23.1095 36.7369 23.0297 36.83 22.949C36.9309 22.8616 37.0485 22.8137 37.1497 22.7987C37.239 22.7855 37.2749 22.8036 37.2319 22.7914L36.5813 25.1016ZM34.094 23.204C34.3971 23.5804 34.7585 23.97 35.156 24.3014C35.5419 24.623 36.0281 24.9458 36.5813 25.1016L37.2319 22.7914C37.1342 22.7639 36.9491 22.6716 36.6927 22.4578C36.4478 22.2537 36.1957 21.9874 35.9634 21.6989L34.094 23.204ZM32.48 20.475C32.8884 21.458 33.4633 22.4206 34.094 23.204L35.9634 21.6989C35.4766 21.0943 35.0181 20.3287 34.6964 19.5543L32.48 20.475ZM34.1439 18.5986C33.8698 18.5214 33.1916 18.426 32.6926 18.9911C32.1955 19.5542 32.3714 20.2134 32.48 20.475L34.6964 19.5543C34.7204 19.612 34.9055 20.1109 34.4917 20.5796C34.0762 21.0503 33.5555 20.9263 33.4932 20.9087L34.1439 18.5986Z" fill="black" mask="url(#path-6-inside-2_2604_16568)"/>
</g>
<defs>
<filter id="filter0_d_2604_16568" x="0" y="0" width="69" height="68" filterUnits="userSpaceOnUse" color-interpolation-filters="sRGB">
<feFlood flood-opacity="0" result="BackgroundImageFix"/>
<feColorMatrix in="SourceAlpha" type="matrix" values="0 0 0 0 0 0 0 0 0 0 0 0 0 0 0 0 0 0 127 0" result="hardAlpha"/>
<feOffset dy="4"/>
<feGaussianBlur stdDeviation="5"/>
<feComposite in2="hardAlpha" operator="out"/>
<feColorMatrix type="matrix" values="0 0 0 0 0 0 0 0 0 0 0 0 0 0 0 0 0 0 0.25 0"/>
<feBlend mode="normal" in2="BackgroundImageFix" result="effect1_dropShadow_2604_16568"/>
<feBlend mode="normal" in="SourceGraphic" in2="effect1_dropShadow_2604_16568" result="shape"/>
</filter>
</defs>
</svg>
