<svg width="126" height="93" viewBox="0 0 126 93" fill="none" xmlns="http://www.w3.org/2000/svg">
<g filter="url(#filter0_d_1978_114608)">
<g filter="url(#filter1_d_1978_114608)">
<path d="M63 73L52.6077 55L73.3923 55L63 73Z" fill="black"/>
<rect x="39" y="25" width="49" height="36" rx="18" fill="black"/>
<path d="M63.1734 38.1373C63.2406 38.2337 63.2267 38.3032 63.2084 38.3396C63.1902 38.3759 63.1429 38.4282 63.0268 38.4296C61.8994 38.4424 60.2195 38.2876 58.6692 37.484C57.1189 36.6804 56.0093 35.3893 55.3576 34.4543C55.2904 34.358 55.3044 34.2884 55.3226 34.2521C55.3408 34.2157 55.3881 34.1634 55.5043 34.1621C56.6316 34.1493 58.3116 34.3041 59.8618 35.1077C61.4121 35.9112 62.5218 37.2024 63.1734 38.1373Z" fill="#E1F452" stroke="black" stroke-width="1.2"/>
<mask id="path-4-inside-1_1978_114608" fill="white">
<path fill-rule="evenodd" clip-rule="evenodd" d="M70.9672 40.5506C70.216 40.5506 69.4916 40.2718 68.9341 39.7683L66.1814 37.2815C64.6585 35.9058 62.3415 35.9058 60.8186 37.2815L58.0659 39.7683C57.5084 40.2718 56.784 40.5506 56.0328 40.5506C54.3578 40.5506 53 41.9084 53 43.5834V47.9329C53 50.142 54.7909 51.9329 57 51.9329H70C72.2091 51.9329 74 50.142 74 47.9329V43.5834C74 41.9084 72.6422 40.5506 70.9672 40.5506Z"/>
</mask>
<path fill-rule="evenodd" clip-rule="evenodd" d="M70.9672 40.5506C70.216 40.5506 69.4916 40.2718 68.9341 39.7683L66.1814 37.2815C64.6585 35.9058 62.3415 35.9058 60.8186 37.2815L58.0659 39.7683C57.5084 40.2718 56.784 40.5506 56.0328 40.5506C54.3578 40.5506 53 41.9084 53 43.5834V47.9329C53 50.142 54.7909 51.9329 57 51.9329H70C72.2091 51.9329 74 50.142 74 47.9329V43.5834C74 41.9084 72.6422 40.5506 70.9672 40.5506Z" fill="#E1F452"/>
<path d="M58.0659 39.7683L58.8703 40.6587L58.0659 39.7683ZM68.9341 39.7683L69.7386 38.8778L68.9341 39.7683ZM66.1814 37.2815L66.9858 36.3911L66.1814 37.2815ZM65.377 38.172L68.1297 40.6587L69.7386 38.8778L66.9858 36.3911L65.377 38.172ZM58.8703 40.6587L61.6231 38.172L60.0142 36.3911L57.2614 38.8778L58.8703 40.6587ZM54.2 47.9329V43.5834H51.8V47.9329H54.2ZM70 50.7329H57V53.1329H70V50.7329ZM72.8 43.5834V47.9329H75.2V43.5834H72.8ZM75.2 43.5834C75.2 41.2457 73.3049 39.3506 70.9672 39.3506V41.7506C71.9794 41.7506 72.8 42.5712 72.8 43.5834H75.2ZM70 53.1329C72.8719 53.1329 75.2 50.8047 75.2 47.9329H72.8C72.8 49.4793 71.5464 50.7329 70 50.7329V53.1329ZM51.8 47.9329C51.8 50.8047 54.1281 53.1329 57 53.1329V50.7329C55.4536 50.7329 54.2 49.4793 54.2 47.9329H51.8ZM56.0328 39.3506C53.6951 39.3506 51.8 41.2457 51.8 43.5834H54.2C54.2 42.5712 55.0206 41.7506 56.0328 41.7506V39.3506ZM57.2614 38.8778C56.9246 39.1821 56.4868 39.3506 56.0328 39.3506V41.7506C57.0812 41.7506 58.0923 41.3615 58.8703 40.6587L57.2614 38.8778ZM68.1297 40.6587C68.9077 41.3615 69.9188 41.7506 70.9672 41.7506V39.3506C70.5132 39.3506 70.0754 39.1821 69.7386 38.8778L68.1297 40.6587ZM66.9858 36.3911C65.006 34.6027 61.994 34.6027 60.0142 36.3911L61.6231 38.172C62.6891 37.209 64.3109 37.209 65.377 38.172L66.9858 36.3911Z" fill="black" mask="url(#path-4-inside-1_1978_114608)"/>
<mask id="path-6-inside-2_1978_114608" fill="white">
<path fill-rule="evenodd" clip-rule="evenodd" d="M72.4107 34.7878C72.7651 34.219 72.387 33.5534 71.7251 33.5809C70.5499 33.6298 68.7714 33.8833 67.1466 34.8367C65.9899 35.5153 65.0965 36.4398 64.4507 37.2806C63.857 37.1476 63.5781 37.4892 63.4931 37.9301C63.4049 38.3877 63.4984 39.0441 63.7722 39.7885L64.5502 39.9628C64.4833 39.7809 64.4298 39.6077 64.389 39.4451C64.4164 39.4464 64.4443 39.4465 64.4728 39.4453C65.648 39.3964 67.4265 39.1429 69.0513 38.1895C70.6761 37.2362 71.7814 35.7977 72.4107 34.7878ZM62.8181 38.7537C63.03 38.8134 63.2704 39.0269 63.355 39.2307C63.6841 40.0229 64.1371 40.7677 64.585 41.324C65.0563 41.9095 65.4084 42.1547 65.5996 42.2085C65.7907 42.2624 66.0054 42.1768 66.0508 41.7369C66.094 41.3188 65.9662 40.6656 65.6372 39.8735C65.5525 39.6697 65.6557 39.5529 65.8675 39.6126C66.0794 39.6722 66.3198 39.8858 66.4045 40.0896C66.7695 40.9684 66.9288 41.7317 66.875 42.2532C66.8234 42.7529 66.5571 43.1298 65.9061 42.9465C65.2552 42.7632 64.5636 42.1164 64.0282 41.4514C63.4695 40.7574 62.9527 39.8934 62.5877 39.0146C62.503 38.8108 62.6062 38.694 62.8181 38.7537Z"/>
</mask>
<path fill-rule="evenodd" clip-rule="evenodd" d="M72.4107 34.7878C72.7651 34.219 72.387 33.5534 71.7251 33.5809C70.5499 33.6298 68.7714 33.8833 67.1466 34.8367C65.9899 35.5153 65.0965 36.4398 64.4507 37.2806C63.857 37.1476 63.5781 37.4892 63.4931 37.9301C63.4049 38.3877 63.4984 39.0441 63.7722 39.7885L64.5502 39.9628C64.4833 39.7809 64.4298 39.6077 64.389 39.4451C64.4164 39.4464 64.4443 39.4465 64.4728 39.4453C65.648 39.3964 67.4265 39.1429 69.0513 38.1895C70.6761 37.2362 71.7814 35.7977 72.4107 34.7878ZM62.8181 38.7537C63.03 38.8134 63.2704 39.0269 63.355 39.2307C63.6841 40.0229 64.1371 40.7677 64.585 41.324C65.0563 41.9095 65.4084 42.1547 65.5996 42.2085C65.7907 42.2624 66.0054 42.1768 66.0508 41.7369C66.094 41.3188 65.9662 40.6656 65.6372 39.8735C65.5525 39.6697 65.6557 39.5529 65.8675 39.6126C66.0794 39.6722 66.3198 39.8858 66.4045 40.0896C66.7695 40.9684 66.9288 41.7317 66.875 42.2532C66.8234 42.7529 66.5571 43.1298 65.9061 42.9465C65.2552 42.7632 64.5636 42.1164 64.0282 41.4514C63.4695 40.7574 62.9527 39.8934 62.5877 39.0146C62.503 38.8108 62.6062 38.694 62.8181 38.7537Z" fill="#E1F452"/>
<path d="M71.7251 33.5809L71.6752 32.3819L71.7251 33.5809ZM72.4107 34.7878L71.3922 34.1532V34.1532L72.4107 34.7878ZM67.1466 34.8367L67.7538 35.8717H67.7538L67.1466 34.8367ZM64.4507 37.2806L64.1885 38.4516L64.9359 38.6189L65.4024 38.0116L64.4507 37.2806ZM63.4931 37.9301L62.3148 37.7031L63.4931 37.9301ZM63.7722 39.7885L62.6459 40.2027L62.8717 40.8165L63.5098 40.9595L63.7722 39.7885ZM64.5502 39.9628L64.2878 41.1338L66.4366 41.6153L65.6764 39.5486L64.5502 39.9628ZM64.389 39.4451L64.4466 38.2465L62.8317 38.1689L63.2251 39.7371L64.389 39.4451ZM64.4728 39.4453L64.4229 38.2463H64.4229L64.4728 39.4453ZM69.0513 38.1895L69.6586 39.2245H69.6586L69.0513 38.1895ZM63.355 39.2307L64.4632 38.7704L64.4632 38.7704L63.355 39.2307ZM62.8181 38.7537L63.1434 37.5986L63.1434 37.5986L62.8181 38.7537ZM64.585 41.324L63.6503 42.0766L63.6503 42.0766L64.585 41.324ZM65.5996 42.2085L65.9249 41.0535L65.9249 41.0535L65.5996 42.2085ZM66.0508 41.7369L64.8572 41.6136L66.0508 41.7369ZM65.6372 39.8735L66.7454 39.4132L66.7454 39.4132L65.6372 39.8735ZM65.8675 39.6126L65.5422 40.7676L65.5422 40.7676L65.8675 39.6126ZM66.4045 40.0896L67.5127 39.6293L67.5127 39.6293L66.4045 40.0896ZM66.875 42.2532L68.0687 42.3765V42.3765L66.875 42.2532ZM65.9061 42.9465L66.2315 41.7914H66.2315L65.9061 42.9465ZM64.0282 41.4514L64.9629 40.6989H64.9629L64.0282 41.4514ZM62.5877 39.0146L61.4795 39.475L62.5877 39.0146ZM71.7749 34.7799C71.6659 34.7844 71.4993 34.7183 71.4056 34.5535C71.3137 34.3916 71.3448 34.2293 71.3922 34.1532L73.4292 35.4224C73.831 34.7775 73.8503 33.998 73.4924 33.368C73.1328 32.735 72.4462 32.3499 71.6752 32.3819L71.7749 34.7799ZM67.7538 35.8717C69.1417 35.0573 70.6996 34.8246 71.7749 34.7799L71.6752 32.3819C70.4001 32.435 68.401 32.7094 66.5393 33.8017L67.7538 35.8717ZM65.4024 38.0116C65.9867 37.2509 66.77 36.449 67.7538 35.8717L66.5393 33.8017C65.2099 34.5817 64.2064 35.6287 63.4991 36.5496L65.4024 38.0116ZM64.7129 36.1096C64.1467 35.9828 63.5321 36.0518 63.0306 36.4538C62.5728 36.8207 62.3876 37.3252 62.3148 37.7031L64.6714 38.1572C64.6836 38.0941 64.6803 38.2073 64.5316 38.3265C64.4515 38.3907 64.3601 38.4295 64.2776 38.4445C64.2014 38.4584 64.1653 38.4464 64.1885 38.4516L64.7129 36.1096ZM62.3148 37.7031C62.167 38.4699 62.339 39.3683 62.6459 40.2027L64.8984 39.3743C64.6577 38.7199 64.6429 38.3054 64.6714 38.1572L62.3148 37.7031ZM63.5098 40.9595L64.2878 41.1338L64.8126 38.7919L64.0345 38.6175L63.5098 40.9595ZM65.6764 39.5486C65.6231 39.4036 65.5826 39.2712 65.553 39.1531L63.2251 39.7371C63.2771 39.9442 63.3435 40.1582 63.424 40.3771L65.6764 39.5486ZM64.4229 38.2463C64.4298 38.2461 64.4377 38.246 64.4466 38.2465L64.3315 40.6437C64.3951 40.6468 64.4589 40.6469 64.5227 40.6443L64.4229 38.2463ZM68.444 37.1545C67.0561 37.9689 65.4982 38.2016 64.4229 38.2463L64.5227 40.6443C65.7978 40.5912 67.7969 40.3169 69.6586 39.2245L68.444 37.1545ZM71.3922 34.1532C70.8138 35.0815 69.8335 36.3393 68.444 37.1545L69.6586 39.2245C71.5187 38.1331 72.7491 36.5139 73.4292 35.4224L71.3922 34.1532ZM64.4632 38.7704C64.333 38.457 64.1226 38.2111 63.9313 38.0411C63.7401 37.8712 63.4708 37.6908 63.1434 37.5986L62.4928 39.9087C62.4271 39.8903 62.3867 39.8683 62.3705 39.8588C62.3524 39.8481 62.3425 39.8399 62.3372 39.8352C62.332 39.8306 62.3228 39.8218 62.3102 39.8053C62.299 39.7905 62.2727 39.7534 62.2468 39.6911L64.4632 38.7704ZM65.5197 40.5715C65.1437 40.1045 64.7489 39.4582 64.4632 38.7704L62.2468 39.6911C62.6192 40.5876 63.1304 41.4309 63.6503 42.0766L65.5197 40.5715ZM65.9249 41.0535C66.005 41.076 66.044 41.1008 66.0368 41.0966C66.0338 41.0948 66.0086 41.0793 65.9619 41.0407C65.8676 40.9628 65.7176 40.8173 65.5197 40.5715L63.6503 42.0766C63.9237 42.4162 64.1854 42.686 64.4328 42.8905C64.6609 43.0791 64.9477 43.2716 65.2743 43.3636L65.9249 41.0535ZM64.8572 41.6136C64.85 41.6833 64.8531 41.4523 65.1097 41.2375C65.4074 40.9884 65.747 41.0033 65.9249 41.0535L65.2742 43.3636C65.6433 43.4675 66.1858 43.4666 66.6499 43.0781C67.073 42.7241 67.2063 42.2303 67.2445 41.8601L64.8572 41.6136ZM64.529 40.3338C64.6708 40.6753 64.7607 40.9666 64.8104 41.1978C64.8622 41.4387 64.8614 41.5722 64.8572 41.6136L67.2445 41.8601C67.3179 41.1487 67.1034 40.2751 66.7454 39.4132L64.529 40.3338ZM66.1929 38.4575C65.9188 38.3803 65.2405 38.2849 64.7416 38.85C64.2445 39.4131 64.4203 40.0723 64.529 40.3338L66.7454 39.4132C66.7694 39.4709 66.9545 39.9698 66.5407 40.4384C66.1252 40.9091 65.6044 40.7851 65.5422 40.7676L66.1929 38.4575ZM67.5127 39.6293C67.3825 39.3158 67.1721 39.07 66.9808 38.9C66.7896 38.7301 66.5203 38.5497 66.1929 38.4575L65.5422 40.7676C65.4766 40.7491 65.4362 40.7272 65.42 40.7176C65.4019 40.707 65.3919 40.6988 65.3867 40.6941C65.3815 40.6895 65.3723 40.6806 65.3597 40.6641C65.3484 40.6493 65.3222 40.6123 65.2963 40.55L67.5127 39.6293ZM68.0687 42.3765C68.1528 41.5615 67.9067 40.5778 67.5127 39.6293L65.2963 40.55C65.6324 41.3589 65.7049 41.9019 65.6813 42.13L68.0687 42.3765ZM65.5808 44.1016C66.1591 44.2644 66.8485 44.2417 67.4011 43.7629C67.8883 43.3408 68.0289 42.7617 68.0687 42.3765L65.6813 42.13C65.6772 42.1701 65.6722 42.1693 65.6841 42.1404C65.6969 42.1095 65.7364 42.0297 65.8295 41.949C65.9304 41.8616 66.048 41.8137 66.1492 41.7987C66.2385 41.7855 66.2745 41.8036 66.2315 41.7914L65.5808 44.1016ZM63.0935 42.204C63.3966 42.5804 63.758 42.97 64.1555 43.3014C64.5414 43.623 65.0276 43.9458 65.5808 44.1016L66.2315 41.7914C66.1337 41.7639 65.9486 41.6716 65.6922 41.4578C65.4473 41.2537 65.1952 40.9874 64.9629 40.6989L63.0935 42.204ZM61.4795 39.475C61.8879 40.458 62.4628 41.4206 63.0935 42.204L64.9629 40.6989C64.4761 40.0943 64.0176 39.3287 63.6959 38.5543L61.4795 39.475ZM63.1434 37.5986C62.8693 37.5214 62.1911 37.426 61.6921 37.9911C61.195 38.5542 61.3709 39.2134 61.4795 39.475L63.6959 38.5543C63.7199 38.612 63.905 39.1109 63.4913 39.5796C63.0757 40.0503 62.555 39.9263 62.4928 39.9087L63.1434 37.5986Z" fill="black" mask="url(#path-6-inside-2_1978_114608)"/>
</g>
<rect x="75" y="9" width="24" height="24" rx="12" fill="white"/>
<path fill-rule="evenodd" clip-rule="evenodd" d="M85.4442 16L83 20.6665H85.4442L83.6112 26.5L91.25 20.6665H87.8892L89.7222 16H85.4442Z" fill="#DAF127" stroke="black" stroke-width="1.2" stroke-linecap="round" stroke-linejoin="round"/>
</g>
<defs>
<filter id="filter0_d_1978_114608" x="-16" y="-3" width="158" height="96" filterUnits="userSpaceOnUse" color-interpolation-filters="sRGB">
<feFlood flood-opacity="0" result="BackgroundImageFix"/>
<feColorMatrix in="SourceAlpha" type="matrix" values="0 0 0 0 0 0 0 0 0 0 0 0 0 0 0 0 0 0 127 0" result="hardAlpha"/>
<feOffset dy="4"/>
<feGaussianBlur stdDeviation="8"/>
<feComposite in2="hardAlpha" operator="out"/>
<feColorMatrix type="matrix" values="0 0 0 0 0 0 0 0 0 0 0 0 0 0 0 0 0 0 0.25 0"/>
<feBlend mode="normal" in2="BackgroundImageFix" result="effect1_dropShadow_1978_114608"/>
<feBlend mode="normal" in="SourceGraphic" in2="effect1_dropShadow_1978_114608" result="shape"/>
</filter>
<filter id="filter1_d_1978_114608" x="29" y="19" width="69" height="68" filterUnits="userSpaceOnUse" color-interpolation-filters="sRGB">
<feFlood flood-opacity="0" result="BackgroundImageFix"/>
<feColorMatrix in="SourceAlpha" type="matrix" values="0 0 0 0 0 0 0 0 0 0 0 0 0 0 0 0 0 0 127 0" result="hardAlpha"/>
<feOffset dy="4"/>
<feGaussianBlur stdDeviation="5"/>
<feComposite in2="hardAlpha" operator="out"/>
<feColorMatrix type="matrix" values="0 0 0 0 0 0 0 0 0 0 0 0 0 0 0 0 0 0 0.25 0"/>
<feBlend mode="normal" in2="BackgroundImageFix" result="effect1_dropShadow_1978_114608"/>
<feBlend mode="normal" in="SourceGraphic" in2="effect1_dropShadow_1978_114608" result="shape"/>
</filter>
</defs>
</svg>
