<svg width="126" height="68" viewBox="0 0 126 68" fill="none" xmlns="http://www.w3.org/2000/svg">
<g filter="url(#filter0_d_1736_52813)">
<rect x="50" y="21" width="26" height="24" rx="12" fill="black"/>
<path d="M58.2758 28.4168C57.9055 28.4111 57.6713 28.7269 57.8628 28.9736C58.1715 29.3713 58.6957 29.9062 59.4698 30.254C60.2438 30.6018 61.1012 30.6876 61.6981 30.6968C62.0684 30.7026 62.3027 30.3868 62.1111 30.1401C61.8024 29.7424 61.2782 29.2074 60.5042 28.8597C59.7301 28.5119 58.8727 28.426 58.2758 28.4168Z" fill="#E1F452" stroke="black" stroke-width="0.4"/>
<mask id="path-3-inside-1_1736_52813" fill="white">
<path fill-rule="evenodd" clip-rule="evenodd" d="M67.2815 31.4738C66.8438 31.4738 66.4225 31.3067 66.1037 31.0067L65.5327 30.4693C64.1097 29.13 61.89 29.13 60.467 30.4693L59.8959 31.0067C59.5772 31.3067 59.156 31.4738 58.7183 31.4738C57.7693 31.4738 57 32.2431 57 33.192V34.8619C57 36.7331 58.5169 38.25 60.3881 38.25H65.6119C67.4831 38.25 69 36.7331 69 34.8619V33.1922C69 32.2431 68.2306 31.4738 67.2815 31.4738Z"/>
</mask>
<path fill-rule="evenodd" clip-rule="evenodd" d="M67.2815 31.4738C66.8438 31.4738 66.4225 31.3067 66.1037 31.0067L65.5327 30.4693C64.1097 29.13 61.89 29.13 60.467 30.4693L59.8959 31.0067C59.5772 31.3067 59.156 31.4738 58.7183 31.4738C57.7693 31.4738 57 32.2431 57 33.192V34.8619C57 36.7331 58.5169 38.25 60.3881 38.25H65.6119C67.4831 38.25 69 36.7331 69 34.8619V33.1922C69 32.2431 68.2306 31.4738 67.2815 31.4738Z" fill="#E1F452"/>
<path d="M59.8959 31.0067L59.5532 30.6426L59.8959 31.0067ZM66.1037 31.0067L65.7611 31.3708L66.1037 31.0067ZM65.5327 30.4693L65.8754 30.1052L65.5327 30.4693ZM60.467 30.4693L60.1243 30.1052L60.467 30.4693ZM65.1901 30.8334L65.7611 31.3708L66.4464 30.6426L65.8754 30.1052L65.1901 30.8334ZM60.2386 31.3708L60.8097 30.8334L60.1243 30.1052L59.5532 30.6426L60.2386 31.3708ZM57.5 34.8619V33.192H56.5V34.8619H57.5ZM65.6119 37.75H60.3881V38.75H65.6119V37.75ZM68.5 33.1922V34.8619H69.5V33.1922H68.5ZM69.5 33.1922C69.5 31.967 68.5067 30.9738 67.2815 30.9738V31.9738C67.9545 31.9738 68.5 32.5193 68.5 33.1922H69.5ZM65.6119 38.75C67.7592 38.75 69.5 37.0092 69.5 34.8619H68.5C68.5 36.4569 67.207 37.75 65.6119 37.75V38.75ZM56.5 34.8619C56.5 37.0092 58.2408 38.75 60.3881 38.75V37.75C58.793 37.75 57.5 36.4569 57.5 34.8619H56.5ZM58.7183 30.9738C57.4932 30.9738 56.5 31.9669 56.5 33.192H57.5C57.5 32.5192 58.0454 31.9738 58.7183 31.9738V30.9738ZM59.5532 30.6426C59.3273 30.8553 59.0286 30.9738 58.7183 30.9738V31.9738C59.2833 31.9738 59.8271 31.7581 60.2386 31.3708L59.5532 30.6426ZM65.7611 31.3708C66.1726 31.7581 66.7164 31.9738 67.2815 31.9738V30.9738C66.9711 30.9738 66.6724 30.8553 66.4464 30.6426L65.7611 31.3708ZM65.8754 30.1052C64.2599 28.5847 61.7399 28.5847 60.1243 30.1052L60.8097 30.8334C62.0402 29.6753 63.9595 29.6753 65.1901 30.8334L65.8754 30.1052Z" fill="black" mask="url(#path-3-inside-1_1736_52813)"/>
<mask id="path-5-inside-2_1736_52813" fill="white">
<path fill-rule="evenodd" clip-rule="evenodd" d="M63.022 30.6565C63.1011 30.2796 63.4163 30.1585 63.7669 30.412C63.8769 30.4916 63.9786 30.4438 63.9938 30.3051C64.0091 30.1664 63.9322 29.9894 63.8221 29.9098C63.2382 29.4875 62.6909 29.7185 62.6104 30.4505L62.6211 30.4582C62.5483 31.1903 62.9686 32.1124 63.5509 32.5325C64.1377 32.9558 64.6885 32.7245 64.7695 31.9898C64.7848 31.8511 64.7079 31.6743 64.5977 31.5948C64.4875 31.5153 64.3858 31.5633 64.3705 31.702C64.3217 32.1445 63.9847 32.3032 63.6063 32.0302C63.2279 31.7573 62.973 31.1717 63.0219 30.7291C63.0244 30.7058 63.0244 30.6814 63.022 30.6565Z"/>
</mask>
<path fill-rule="evenodd" clip-rule="evenodd" d="M63.022 30.6565C63.1011 30.2796 63.4163 30.1585 63.7669 30.412C63.8769 30.4916 63.9786 30.4438 63.9938 30.3051C64.0091 30.1664 63.9322 29.9894 63.8221 29.9098C63.2382 29.4875 62.6909 29.7185 62.6104 30.4505L62.6211 30.4582C62.5483 31.1903 62.9686 32.1124 63.5509 32.5325C64.1377 32.9558 64.6885 32.7245 64.7695 31.9898C64.7848 31.8511 64.7079 31.6743 64.5977 31.5948C64.4875 31.5153 64.3858 31.5633 64.3705 31.702C64.3217 32.1445 63.9847 32.3032 63.6063 32.0302C63.2279 31.7573 62.973 31.1717 63.0219 30.7291C63.0244 30.7058 63.0244 30.6814 63.022 30.6565Z" fill="#E1F452"/>
<path d="M63.7669 30.412L64.3569 29.5852L64.3569 29.5852L63.7669 30.412ZM63.022 30.6565L62.0522 30.4729L62.02 30.6264L62.0347 30.7813L63.022 30.6565ZM63.9938 30.3051L63.0081 30.2209L63.0081 30.2209L63.9938 30.3051ZM63.8221 29.9098L64.4121 29.0829L64.4121 29.0829L63.8221 29.9098ZM62.6104 30.4505L61.6246 30.3663L61.561 30.945L62.0204 31.2773L62.6104 30.4505ZM62.6211 30.4582L63.6079 30.5316L63.6648 29.9595L63.2111 29.6314L62.6211 30.4582ZM63.5509 32.5325L64.14 31.705L64.14 31.705L63.5509 32.5325ZM64.7695 31.9898L65.7552 32.0743L65.7552 32.0743L64.7695 31.9898ZM64.5977 31.5948L64.0086 32.4223L64.0086 32.4223L64.5977 31.5948ZM64.3705 31.702L63.3848 31.6175L64.3705 31.702ZM63.6063 32.0302L63.0172 32.8577L63.0172 32.8577L63.6063 32.0302ZM63.0219 30.7291L64.0075 30.8136L64.0075 30.8136L63.0219 30.7291ZM64.3569 29.5852C64.0322 29.3504 63.5382 29.1578 62.9976 29.3442C62.428 29.5407 62.1432 30.039 62.0522 30.4729L63.9919 30.8401C63.9799 30.8971 63.8923 31.1464 63.5876 31.2515C63.3121 31.3465 63.1509 31.2201 63.1769 31.2388L64.3569 29.5852ZM63.0081 30.2209C63.0236 30.0796 63.1203 29.7162 63.5195 29.528C63.9188 29.3398 64.2447 29.5041 64.3569 29.5852L63.1769 31.2388C63.3991 31.3996 63.8309 31.5797 64.3122 31.3528C64.7936 31.1259 64.9487 30.6692 64.9795 30.3892L63.0081 30.2209ZM63.2321 30.7366C63.1145 30.6515 63.0656 30.5597 63.0457 30.5138C63.0258 30.4679 62.9918 30.3691 63.0081 30.2209L64.9795 30.3892C65.0111 30.1023 64.9463 29.8457 64.8642 29.6567C64.7821 29.4677 64.6398 29.2476 64.4121 29.0829L63.2321 30.7366ZM63.5961 30.5346C63.6034 30.4683 63.6153 30.4706 63.5913 30.5102C63.5633 30.5561 63.5012 30.6262 63.3988 30.6711C63.2987 30.715 63.2175 30.7098 63.1845 30.7033C63.1561 30.6978 63.1739 30.6945 63.2321 30.7366L64.4121 29.0829C63.9612 28.7569 63.3122 28.5357 62.6561 28.8235C61.9821 29.1192 61.6893 29.7785 61.6246 30.3663L63.5961 30.5346ZM63.2111 29.6314L63.2004 29.6236L62.0204 31.2773L62.0311 31.285L63.2111 29.6314ZM64.14 31.705C64.0156 31.6153 63.8604 31.4295 63.7442 31.1716C63.6276 30.9129 63.5934 30.6775 63.6079 30.5316L61.6342 30.3848C61.576 30.9709 61.7155 31.5627 61.9365 32.0531C62.1578 32.5443 62.5039 33.0296 62.9619 33.36L64.14 31.705ZM63.7838 31.9054C63.7765 31.9721 63.7644 31.97 63.7884 31.9306C63.8162 31.885 63.878 31.8156 63.9795 31.7712C64.0787 31.7278 64.1586 31.7332 64.1904 31.7394C64.2176 31.7447 64.1989 31.7475 64.14 31.705L62.9619 33.36C63.4143 33.6863 64.064 33.9067 64.7203 33.6196C65.3954 33.3243 65.6901 32.6646 65.7552 32.0743L63.7838 31.9054ZM64.0086 32.4223C63.8907 32.3372 63.8416 32.2452 63.8216 32.199C63.8015 32.1529 63.7675 32.0538 63.7838 31.9054L65.7552 32.0743C65.7869 31.7872 65.722 31.5303 65.6398 31.3411C65.5575 31.152 65.4149 30.9318 65.1868 30.7673L64.0086 32.4223ZM65.3562 31.7864C65.3405 31.9283 65.2436 32.2908 64.8453 32.4788C64.4469 32.6667 64.1213 32.5035 64.0086 32.4223L65.1868 30.7673C64.9639 30.6065 64.5323 30.4276 64.0518 30.6543C63.5712 30.8811 63.4157 31.337 63.3848 31.6175L65.3562 31.7864ZM63.0172 32.8577C63.3647 33.1084 63.911 33.3113 64.4861 33.057C65.0737 32.7972 65.307 32.232 65.3562 31.7864L63.3848 31.6175C63.3851 31.6145 63.4256 31.35 63.7379 31.2119C64.0376 31.0793 64.2263 31.2251 64.1954 31.2027L63.0172 32.8577ZM62.0362 30.6446C61.987 31.0902 62.0918 31.5283 62.2481 31.8797C62.4058 32.2341 62.6601 32.6001 63.0172 32.8577L64.1954 31.2027C64.1742 31.1874 64.1119 31.1241 64.0597 31.0068C64.0362 30.9539 64.0213 30.9042 64.0137 30.8639C64.0058 30.8221 64.0084 30.8054 64.0075 30.8136L62.0362 30.6446ZM62.0347 30.7813C62.0313 30.7457 62.0301 30.6995 62.0362 30.6446L64.0075 30.8136C64.0187 30.7121 64.0175 30.617 64.0094 30.5317L62.0347 30.7813Z" fill="black" mask="url(#path-5-inside-2_1736_52813)"/>
<path d="M67.6978 28.4168C68.0681 28.4111 68.3024 28.7269 68.1109 28.9736C67.8022 29.3713 67.2779 29.9062 66.5039 30.254C65.7299 30.6018 64.8724 30.6876 64.2756 30.6968C63.9053 30.7026 63.671 30.3868 63.8625 30.1401C64.1712 29.7424 64.6955 29.2074 65.4695 28.8597C66.2435 28.5119 67.1009 28.426 67.6978 28.4168Z" fill="#E1F452" stroke="black" stroke-width="0.4"/>
<path d="M63 53L56.9378 41L69.0622 41L63 53Z" fill="black"/>
<rect x="68" y="12" width="14" height="14" rx="7" fill="white"/>
<path fill-rule="evenodd" clip-rule="evenodd" d="M74.0926 16.0833L72.6667 18.8054H74.0926L73.0233 22.2083L77.4792 18.8054H75.5188L76.5881 16.0833H74.0926Z" fill="#DAF127" stroke="black" stroke-width="0.8" stroke-linecap="round" stroke-linejoin="round"/>
</g>
<defs>
<filter id="filter0_d_1736_52813" x="-16" y="0" width="158" height="76" filterUnits="userSpaceOnUse" color-interpolation-filters="sRGB">
<feFlood flood-opacity="0" result="BackgroundImageFix"/>
<feColorMatrix in="SourceAlpha" type="matrix" values="0 0 0 0 0 0 0 0 0 0 0 0 0 0 0 0 0 0 127 0" result="hardAlpha"/>
<feOffset dy="4"/>
<feGaussianBlur stdDeviation="8"/>
<feComposite in2="hardAlpha" operator="out"/>
<feColorMatrix type="matrix" values="0 0 0 0 0 0 0 0 0 0 0 0 0 0 0 0 0 0 0.25 0"/>
<feBlend mode="normal" in2="BackgroundImageFix" result="effect1_dropShadow_1736_52813"/>
<feBlend mode="normal" in="SourceGraphic" in2="effect1_dropShadow_1736_52813" result="shape"/>
</filter>
</defs>
</svg>
