<svg width="104" height="30" viewBox="0 0 104 30" fill="none" xmlns="http://www.w3.org/2000/svg">
<path d="M103.423 26.5406C103.423 28.1393 102.101 29.4343 100.466 29.4343H3.69149C2.0571 29.4343 0.730469 28.1393 0.730469 26.5406V3.46393C0.730469 1.86595 2.0571 0.566406 3.69149 0.566406H100.465C102.101 0.566406 103.422 1.86595 103.422 3.46393L103.423 26.5406Z" fill="black"/>
<path d="M100.154 0.600937C101.935 0.600937 103.384 2.01375 103.384 3.75V26.25C103.384 27.9863 101.935 29.3991 100.154 29.3991H4.00045C2.21968 29.3991 0.770643 27.9863 0.770643 26.25V3.75C0.770643 2.01375 2.21968 0.600937 4.00045 0.600937H100.154ZM100.154 1.58548e-06H4.00045C1.88603 1.58548e-06 0.154297 1.68844 0.154297 3.75V26.25C0.154297 28.3116 1.88603 30 4.00045 30H100.154C102.269 30 104 28.3116 104 26.25V3.75C104 1.68844 102.269 1.58548e-06 100.154 1.58548e-06Z" fill="#A6A6A6"/>
<path d="M23.3296 14.8393C23.3073 12.4221 25.3596 11.2461 25.4534 11.1913C24.2911 9.53906 22.4896 9.31331 21.8565 9.29531C20.3434 9.14006 18.8758 10.1781 18.105 10.1781C17.3188 10.1781 16.1319 9.31031 14.8527 9.33581C13.2065 9.36056 11.6665 10.2898 10.8219 11.7328C9.07883 14.6751 10.3788 18.9988 12.0488 21.3771C12.8842 22.5418 13.8604 23.8423 15.1381 23.7966C16.3881 23.7463 16.855 23.0196 18.3634 23.0196C19.8581 23.0196 20.2965 23.7966 21.5996 23.7673C22.9411 23.7463 23.7858 22.5973 24.5919 21.4221C25.5573 20.0871 25.945 18.7723 25.9604 18.7048C25.9288 18.6943 23.355 17.7366 23.3296 14.8393Z" fill="white"/>
<path d="M20.8681 7.73081C21.5404 6.91106 22.0004 5.79581 21.8727 4.66406C20.8996 4.70606 19.6827 5.32031 18.9819 6.12206C18.3619 6.82856 17.8081 7.98656 17.9511 9.07556C19.0442 9.15506 20.1665 8.53781 20.8681 7.73081Z" fill="white"/>
<path d="M41.4187 23.6285H39.6718L38.7148 20.6967H35.3887L34.4771 23.6285H32.7764L36.0718 13.6475H38.1071L41.4187 23.6285ZM38.4264 19.4667L37.561 16.8605C37.4694 16.5942 37.2979 15.9672 37.0448 14.9802H37.0141C36.9133 15.4047 36.751 16.0317 36.5279 16.8605L35.6779 19.4667H38.4264Z" fill="white"/>
<path d="M49.8936 19.941C49.8936 21.165 49.5544 22.1325 48.8759 22.8427C48.2682 23.475 47.5136 23.7907 46.6128 23.7907C45.6405 23.7907 44.9421 23.4502 44.5167 22.7692H44.4859V26.5605H42.8459V18.8002C42.8459 18.0307 42.8252 17.241 42.7852 16.431H44.2275L44.319 17.5717H44.3498C44.8967 16.7122 45.7267 16.2832 46.8405 16.2832C47.7113 16.2832 48.4382 16.6185 49.0198 17.2897C49.6028 17.9617 49.8936 18.8452 49.8936 19.941ZM48.2228 19.9995C48.2228 19.299 48.0613 18.7215 47.7367 18.267C47.3821 17.793 46.9059 17.556 46.309 17.556C45.9044 17.556 45.5367 17.688 45.2082 17.9482C44.879 18.2107 44.6636 18.5535 44.5628 18.978C44.5121 19.176 44.4867 19.338 44.4867 19.4655V20.6655C44.4867 21.189 44.6513 21.6307 44.9805 21.9915C45.3098 22.3522 45.7375 22.5322 46.2636 22.5322C46.8813 22.5322 47.3621 22.2997 47.7059 21.8362C48.0505 21.372 48.2228 20.76 48.2228 19.9995Z" fill="white"/>
<path d="M58.3831 19.941C58.3831 21.165 58.0439 22.1325 57.3646 22.8427C56.7577 23.475 56.0031 23.7907 55.1023 23.7907C54.13 23.7907 53.4315 23.4502 53.0069 22.7692H52.9762V26.5605H51.3362V18.8002C51.3362 18.0307 51.3154 17.241 51.2754 16.431H52.7177L52.8092 17.5717H52.84C53.3862 16.7122 54.2162 16.2832 55.3308 16.2832C56.2008 16.2832 56.9277 16.6185 57.5108 17.2897C58.0915 17.9617 58.3831 18.8452 58.3831 19.941ZM56.7123 19.9995C56.7123 19.299 56.55 18.7215 56.2254 18.267C55.8708 17.793 55.3962 17.556 54.7985 17.556C54.3931 17.556 54.0262 17.688 53.6969 17.9482C53.3677 18.2107 53.1531 18.5535 53.0523 18.978C53.0023 19.176 52.9762 19.338 52.9762 19.4655V20.6655C52.9762 21.189 53.1408 21.6307 53.4685 21.9915C53.7977 22.3515 54.2254 22.5322 54.7531 22.5322C55.3708 22.5322 55.8515 22.2997 56.1954 21.8362C56.54 21.372 56.7123 20.76 56.7123 19.9995Z" fill="white"/>
<path d="M67.8752 20.8292C67.8752 21.6782 67.5729 22.369 66.966 22.9022C66.299 23.485 65.3706 23.776 64.1775 23.776C63.076 23.776 62.1929 23.569 61.5244 23.1542L61.9044 21.8215C62.6244 22.246 63.4144 22.459 64.2752 22.459C64.8929 22.459 65.3736 22.3225 65.719 22.051C66.0629 21.7795 66.2344 21.415 66.2344 20.9605C66.2344 20.5555 66.0929 20.2142 65.809 19.9375C65.5267 19.6607 65.0552 19.4035 64.3967 19.1657C62.6044 18.514 61.709 17.5592 61.709 16.3037C61.709 15.4832 62.0229 14.8105 62.6513 14.287C63.2775 13.7627 64.1129 13.501 65.1575 13.501C66.089 13.501 66.8629 13.6592 67.4806 13.975L67.0706 15.2785C66.4936 14.9725 65.8413 14.8195 65.1113 14.8195C64.5344 14.8195 64.0836 14.9582 63.7606 15.2342C63.4875 15.481 63.3506 15.7817 63.3506 16.138C63.3506 16.5325 63.5067 16.8587 63.8206 17.1152C64.0936 17.3522 64.5898 17.6087 65.3098 17.8855C66.1906 18.2312 66.8375 18.6355 67.2536 19.099C67.6683 19.561 67.8752 20.1392 67.8752 20.8292Z" fill="white"/>
<path d="M73.2981 17.6309H71.4904V21.1252C71.4904 22.0139 71.8089 22.4579 72.4473 22.4579C72.7404 22.4579 72.9835 22.4332 73.1758 22.3837L73.2212 23.5979C72.8981 23.7157 72.4727 23.7749 71.9458 23.7749C71.2981 23.7749 70.792 23.5822 70.4266 23.1974C70.0627 22.8119 69.8797 22.1654 69.8797 21.2572V17.6294H68.8027V16.4294H69.8797V15.1117L71.4904 14.6377V16.4294H73.2981V17.6309Z" fill="white"/>
<path d="M81.4546 19.9704C81.4546 21.0767 81.13 21.9849 80.4823 22.6952C79.8031 23.4264 78.9015 23.7909 77.7777 23.7909C76.6946 23.7909 75.8323 23.4407 75.1892 22.7402C74.5461 22.0397 74.2246 21.1554 74.2246 20.0897C74.2246 18.9744 74.5554 18.0609 75.2192 17.3507C75.8815 16.6397 76.7754 16.2842 77.8992 16.2842C78.9823 16.2842 79.8538 16.6344 80.5115 17.3357C81.1408 18.0159 81.4546 18.8942 81.4546 19.9704ZM79.7531 20.0222C79.7531 19.3584 79.6077 18.7892 79.3131 18.3144C78.9692 17.7399 78.4777 17.4534 77.8408 17.4534C77.1815 17.4534 76.6808 17.7407 76.3369 18.3144C76.0423 18.7899 75.8969 19.3682 75.8969 20.0522C75.8969 20.7159 76.0423 21.2852 76.3369 21.7592C76.6915 22.3337 77.1869 22.6202 77.8261 22.6202C78.4523 22.6202 78.9438 22.3277 79.2985 21.7442C79.6008 21.2604 79.7531 20.6852 79.7531 20.0222Z" fill="white"/>
<path d="M86.7842 17.8372C86.6219 17.808 86.4488 17.793 86.2673 17.793C85.6904 17.793 85.2442 18.0052 84.9304 18.4305C84.6573 18.8055 84.5204 19.2795 84.5204 19.8517V23.628H82.8811L82.8965 18.6975C82.8965 17.868 82.8757 17.1127 82.835 16.4317H84.2634L84.3234 17.8087H84.3688C84.5419 17.3355 84.815 16.9545 85.1888 16.6687C85.5542 16.4115 85.9488 16.2832 86.3742 16.2832C86.5257 16.2832 86.6627 16.2937 86.7842 16.3125V17.8372Z" fill="white"/>
<path d="M94.1186 19.6898C94.1186 19.9763 94.0994 20.2178 94.0586 20.415H89.1386C89.1578 21.126 89.3955 21.6698 89.8524 22.0448C90.2671 22.38 90.8032 22.548 91.4617 22.548C92.1901 22.548 92.8547 22.4348 93.4524 22.2075L93.7094 23.3175C93.0109 23.6145 92.1863 23.7623 91.2347 23.7623C90.0901 23.7623 89.1917 23.4338 88.5378 22.7775C87.8855 22.1213 87.5586 21.24 87.5586 20.1345C87.5586 19.0493 87.8624 18.1455 88.4709 17.4248C89.1078 16.6553 89.9686 16.2705 91.0517 16.2705C92.1155 16.2705 92.9209 16.6553 93.4678 17.4248C93.9009 18.036 94.1186 18.792 94.1186 19.6898ZM92.5547 19.275C92.5655 18.801 92.4586 18.3915 92.2363 18.0458C91.9524 17.601 91.5163 17.379 90.9294 17.379C90.3932 17.379 89.9571 17.5958 89.624 18.0308C89.3509 18.3765 89.1886 18.7913 89.1386 19.2743H92.5547V19.275Z" fill="white"/>
<path d="M37.8848 7.50604C37.8848 8.38879 37.6133 9.05329 37.071 9.49954C36.5687 9.91129 35.8548 10.1175 34.9302 10.1175C34.4717 10.1175 34.0794 10.098 33.751 10.059V5.23579C34.1794 5.16829 34.641 5.13379 35.1394 5.13379C36.0202 5.13379 36.6841 5.32054 37.1317 5.69404C37.6333 6.11629 37.8848 6.72004 37.8848 7.50604ZM37.0348 7.52779C37.0348 6.95554 36.8794 6.51679 36.5687 6.21079C36.2579 5.90554 35.8041 5.75254 35.2064 5.75254C34.9525 5.75254 34.7364 5.76904 34.5571 5.80354V9.47029C34.6564 9.48529 34.8379 9.49204 35.1017 9.49204C35.7187 9.49204 36.1948 9.32479 36.5302 8.99029C36.8656 8.65579 37.0348 8.16829 37.0348 7.52779Z" fill="white"/>
<path d="M42.3914 8.27827C42.3914 8.82202 42.2322 9.26752 41.9137 9.61702C41.5798 9.97627 41.1375 10.1555 40.5852 10.1555C40.0529 10.1555 39.6291 9.98377 39.3129 9.63877C38.9975 9.29452 38.8398 8.86027 38.8398 8.33677C38.8398 7.78927 39.0022 7.34002 39.3283 6.99127C39.6545 6.64252 40.0929 6.46777 40.6452 6.46777C41.1775 6.46777 41.6052 6.63952 41.9291 6.98377C42.2368 7.31827 42.3914 7.75027 42.3914 8.27827ZM41.5552 8.30377C41.5552 7.97752 41.4829 7.69777 41.3391 7.46452C41.1698 7.18252 40.9291 7.04152 40.616 7.04152C40.2922 7.04152 40.046 7.18252 39.8768 7.46452C39.7322 7.69777 39.6606 7.98202 39.6606 8.31802C39.6606 8.64427 39.7329 8.92402 39.8768 9.15727C40.0514 9.43927 40.2945 9.58027 40.6083 9.58027C40.916 9.58027 41.1575 9.43702 41.3314 9.14977C41.4806 8.91202 41.5552 8.63002 41.5552 8.30377Z" fill="white"/>
<path d="M48.4355 6.53906L47.3009 10.0746H46.5624L46.0924 8.53931C45.9732 8.15606 45.8763 7.77506 45.8009 7.39706H45.7863C45.7163 7.78556 45.6193 8.16581 45.4947 8.53931L44.9955 10.0746H44.2486L43.1816 6.53906H44.0101L44.4201 8.21981C44.5193 8.61731 44.6009 8.99606 44.6663 9.35456H44.6809C44.7409 9.05906 44.8401 8.68256 44.9801 8.22731L45.4947 6.53981H46.1516L46.6447 8.19131C46.7639 8.59406 46.8609 8.98181 46.9355 9.35531H46.9578C47.0124 8.99156 47.0947 8.60381 47.2039 8.19131L47.6439 6.53981H48.4355V6.53906Z" fill="white"/>
<path d="M52.614 10.0746H51.8078V8.04959C51.8078 7.42559 51.5648 7.11359 51.0771 7.11359C50.8378 7.11359 50.6448 7.19909 50.4948 7.37084C50.3463 7.54259 50.2709 7.74509 50.2709 7.97684V10.0738H49.4648V7.54934C49.4648 7.23884 49.4548 6.90209 49.4355 6.53759H50.144L50.1817 7.09034H50.204C50.2979 6.91859 50.4379 6.77684 50.6217 6.66359C50.8402 6.53159 51.0848 6.46484 51.3525 6.46484C51.6909 6.46484 51.9725 6.57134 52.1963 6.78509C52.4748 7.04684 52.614 7.43759 52.614 7.95659V10.0746Z" fill="white"/>
<path d="M54.8376 10.0747H54.0322V4.91699H54.8376V10.0747Z" fill="white"/>
<path d="M59.5828 8.27827C59.5828 8.82202 59.4236 9.26752 59.1051 9.61702C58.7713 9.97627 58.3282 10.1555 57.7766 10.1555C57.2436 10.1555 56.8197 9.98377 56.5043 9.63877C56.1889 9.29452 56.0312 8.86027 56.0312 8.33677C56.0312 7.78927 56.1936 7.34002 56.5197 6.99127C56.8459 6.64252 57.2843 6.46777 57.8359 6.46777C58.3689 6.46777 58.7959 6.63952 59.1205 6.98377C59.4282 7.31827 59.5828 7.75027 59.5828 8.27827ZM58.7459 8.30377C58.7459 7.97752 58.6736 7.69777 58.5297 7.46452C58.3613 7.18252 58.1197 7.04152 57.8074 7.04152C57.4828 7.04152 57.2366 7.18252 57.0682 7.46452C56.9236 7.69777 56.852 7.98202 56.852 8.31802C56.852 8.64427 56.9243 8.92402 57.0682 9.15727C57.2428 9.43927 57.4859 9.58027 57.7997 9.58027C58.1074 9.58027 58.3482 9.43702 58.522 9.14977C58.672 8.91202 58.7459 8.63002 58.7459 8.30377Z" fill="white"/>
<path d="M63.4847 10.0753H62.7609L62.7009 9.66802H62.6786C62.4309 9.99277 62.0778 10.1555 61.6193 10.1555C61.277 10.1555 61.0001 10.0483 60.7917 9.83527C60.6024 9.64177 60.5078 9.40102 60.5078 9.11527C60.5078 8.68327 60.6924 8.35402 61.064 8.12602C61.4347 7.89802 61.9563 7.78627 62.6278 7.79152V7.72552C62.6278 7.25977 62.377 7.02727 61.8747 7.02727C61.517 7.02727 61.2017 7.11502 60.9294 7.28902L60.7655 6.77302C61.1024 6.56977 61.5186 6.46777 62.0094 6.46777C62.957 6.46777 63.4324 6.95527 63.4324 7.93027V9.23227C63.4324 9.58552 63.4501 9.86677 63.4847 10.0753ZM62.6478 8.86027V8.31502C61.7586 8.30002 61.314 8.53777 61.314 9.02752C61.314 9.21202 61.3647 9.35002 61.4686 9.44227C61.5724 9.53452 61.7047 9.58027 61.8624 9.58027C62.0393 9.58027 62.2047 9.52552 62.3555 9.41677C62.507 9.30727 62.6001 9.16852 62.6347 8.99827C62.6432 8.96002 62.6478 8.91352 62.6478 8.86027Z" fill="white"/>
<path d="M68.065 10.0747H67.3497L67.312 9.50699H67.2897C67.0612 9.93899 66.672 10.155 66.125 10.155C65.6881 10.155 65.3243 9.98774 65.0358 9.65324C64.7474 9.31874 64.6035 8.88449 64.6035 8.35124C64.6035 7.77899 64.7597 7.31549 65.0735 6.96149C65.3774 6.63149 65.7497 6.46649 66.1927 6.46649C66.6797 6.46649 67.0204 6.62624 67.2143 6.94649H67.2297V4.91699H68.0366V9.12224C68.0366 9.46649 68.0458 9.78374 68.065 10.0747ZM67.2297 8.58374V7.99424C67.2297 7.89224 67.222 7.80974 67.2074 7.74674C67.162 7.55774 67.0643 7.39874 66.9158 7.27049C66.7658 7.14224 66.585 7.07774 66.3766 7.07774C66.0758 7.07774 65.8404 7.19399 65.6674 7.42724C65.4958 7.66049 65.4089 7.95824 65.4089 8.32199C65.4089 8.67149 65.4912 8.95499 65.6566 9.17324C65.8312 9.40574 66.0666 9.52199 66.3612 9.52199C66.6258 9.52199 66.8374 9.42524 66.9981 9.23099C67.1535 9.05174 67.2297 8.83574 67.2297 8.58374Z" fill="white"/>
<path d="M74.9607 8.27827C74.9607 8.82202 74.8015 9.26752 74.483 9.61702C74.1492 9.97627 73.7076 10.1555 73.1546 10.1555C72.623 10.1555 72.1992 9.98377 71.8823 9.63877C71.5669 9.29452 71.4092 8.86027 71.4092 8.33677C71.4092 7.78927 71.5715 7.34002 71.8976 6.99127C72.2238 6.64252 72.6623 6.46777 73.2153 6.46777C73.7469 6.46777 74.1753 6.63952 74.4984 6.98377C74.8061 7.31827 74.9607 7.75027 74.9607 8.27827ZM74.1253 8.30377C74.1253 7.97752 74.053 7.69777 73.9092 7.46452C73.7392 7.18252 73.4992 7.04152 73.1853 7.04152C72.8623 7.04152 72.6161 7.18252 72.4461 7.46452C72.3015 7.69777 72.2299 7.98202 72.2299 8.31802C72.2299 8.64427 72.3023 8.92402 72.4461 9.15727C72.6207 9.43927 72.8638 9.58027 73.1776 9.58027C73.4853 9.58027 73.7276 9.43702 73.9015 9.14977C74.0499 8.91202 74.1253 8.63002 74.1253 8.30377Z" fill="white"/>
<path d="M79.2949 10.0746H78.4895V8.04959C78.4895 7.42559 78.2464 7.11359 77.758 7.11359C77.5187 7.11359 77.3256 7.19909 77.1764 7.37084C77.0272 7.54259 76.9526 7.74509 76.9526 7.97684V10.0738H76.1457V7.54934C76.1457 7.23884 76.1364 6.90209 76.1172 6.53759H76.8249L76.8626 7.09034H76.8849C76.9795 6.91859 77.1195 6.77684 77.3026 6.66359C77.5218 6.53159 77.7656 6.46484 78.0341 6.46484C78.3718 6.46484 78.6533 6.57134 78.8772 6.78509C79.1564 7.04684 79.2949 7.43759 79.2949 7.95659V10.0746Z" fill="white"/>
<path d="M84.7202 7.12843H83.8325V8.84593C83.8325 9.28243 83.9902 9.50068 84.3025 9.50068C84.4471 9.50068 84.5671 9.48868 84.6617 9.46393L84.6825 10.0602C84.5233 10.1187 84.314 10.1479 84.0563 10.1479C83.7379 10.1479 83.4902 10.0534 83.3109 9.86443C83.1309 9.67543 83.0417 9.35743 83.0417 8.91118V7.12843H82.5117V6.53968H83.0417V5.89168L83.8317 5.65918V6.53893H84.7194V7.12843H84.7202Z" fill="white"/>
<path d="M88.9881 10.0747H88.1812V8.06474C88.1812 7.43099 87.9381 7.11374 87.4512 7.11374C87.0773 7.11374 86.8219 7.29749 86.6819 7.66499C86.6581 7.74224 86.6443 7.83674 86.6443 7.94774V10.074H85.8389V4.91699H86.6443V7.04774H86.6596C86.9135 6.65999 87.2773 6.46649 87.7489 6.46649C88.0827 6.46649 88.3589 6.57299 88.5781 6.78674C88.8512 7.05299 88.9881 7.44899 88.9881 7.97249V10.0747Z" fill="white"/>
<path d="M93.3908 8.13921C93.3908 8.28021 93.3801 8.39871 93.3608 8.49546H90.9431C90.9539 8.84496 91.0693 9.11121 91.2931 9.29571C91.4978 9.46071 91.7616 9.54321 92.0847 9.54321C92.4424 9.54321 92.7685 9.48771 93.0624 9.37596L93.1885 9.92196C92.8447 10.0675 92.4401 10.1402 91.9716 10.1402C91.4101 10.1402 90.9678 9.97896 90.6478 9.65646C90.3262 9.33396 90.167 8.90121 90.167 8.35821C90.167 7.82496 90.3155 7.38096 90.6147 7.02696C90.927 6.64896 91.3493 6.45996 91.8824 6.45996C92.4039 6.45996 92.8001 6.64896 93.0678 7.02696C93.2839 7.32696 93.3908 7.69821 93.3908 8.13921ZM92.6216 7.93596C92.6278 7.70271 92.5747 7.50171 92.4655 7.33221C92.3255 7.11396 92.1124 7.00446 91.8239 7.00446C91.5608 7.00446 91.3462 7.11096 91.1824 7.32471C91.0485 7.49496 90.9693 7.69821 90.9431 7.93596H92.6216Z" fill="white"/>
</svg>
