<svg width="16" height="17" viewBox="0 0 16 17" fill="none" xmlns="http://www.w3.org/2000/svg">
<g id="Subtract">
<path id="Subtract_2" fill-rule="evenodd" clip-rule="evenodd" d="M4 13.4781V4.70773C4 4.51137 4.17909 4.35218 4.4 4.35218H8V3.52255C8 3.32618 8.17907 3.16699 8.4 3.16699H11.6C11.8209 3.16699 12 3.32618 12 3.52255V13.4781C12 13.6745 11.8209 13.8337 11.6 13.8337H4.4C4.17909 13.8337 4 13.6745 4 13.4781ZM6 6.03366C6 5.9232 6.08954 5.83366 6.2 5.83366H7.13333C7.24379 5.83366 7.33333 5.9232 7.33333 6.03366V6.96699C7.33333 7.07745 7.24379 7.16699 7.13333 7.16699H6.2C6.08954 7.16699 6 7.07745 6 6.96699V6.03366ZM6.2 11.167C6.08954 11.167 6 11.2565 6 11.367V12.3003C6 12.4108 6.08954 12.5003 6.2 12.5003H7.13333C7.24379 12.5003 7.33333 12.4108 7.33333 12.3003V11.367C7.33333 11.2565 7.24379 11.167 7.13333 11.167H6.2ZM6 8.70033C6 8.58987 6.08954 8.50033 6.2 8.50033H7.13333C7.24379 8.50033 7.33333 8.58987 7.33333 8.70033V9.63366C7.33333 9.74412 7.24379 9.83366 7.13333 9.83366H6.2C6.08954 9.83366 6 9.74412 6 9.63366V8.70033ZM8.86667 5.83366C8.75621 5.83366 8.66667 5.9232 8.66667 6.03366V6.96699C8.66667 7.07745 8.75621 7.16699 8.86667 7.16699H9.8C9.91046 7.16699 10 7.07745 10 6.96699V6.03366C10 5.9232 9.91046 5.83366 9.8 5.83366H8.86667ZM8.66667 11.367C8.66667 11.2565 8.75621 11.167 8.86667 11.167H9.8C9.91046 11.167 10 11.2565 10 11.367V12.3003C10 12.4108 9.91046 12.5003 9.8 12.5003H8.86667C8.75621 12.5003 8.66667 12.4108 8.66667 12.3003V11.367ZM8.86667 8.50033C8.75621 8.50033 8.66667 8.58987 8.66667 8.70033V9.63366C8.66667 9.74412 8.75621 9.83366 8.86667 9.83366H9.8C9.91046 9.83366 10 9.74412 10 9.63366V8.70033C10 8.58987 9.91046 8.50033 9.8 8.50033H8.86667Z" fill="#A3A3A3"/>
</g>
</svg>
