<svg width="104" height="30" viewBox="0 0 104 30" fill="none" xmlns="http://www.w3.org/2000/svg">
<path d="M99.8625 30H3.84087C1.72935 30 0 28.3116 0 26.25V3.75C0 1.68844 1.72935 3.94756e-06 3.84087 3.94756e-06H99.8625C101.974 3.94756e-06 103.703 1.68844 103.703 3.75V26.25C103.703 28.3116 101.974 30 99.8625 30Z" fill="black"/>
<path d="M99.8625 0.600939C101.641 0.600939 103.088 2.01375 103.088 3.75V26.25C103.088 27.9863 101.641 29.3991 99.8625 29.3991H3.84087C2.06255 29.3991 0.615499 27.9863 0.615499 26.25V3.75C0.615499 2.01375 2.06255 0.600939 3.84087 0.600939H99.8625ZM99.8625 3.94756e-06H3.84087C1.72935 3.94756e-06 0 1.68844 0 3.75V26.25C0 28.3116 1.72935 30 3.84087 30H99.8625C101.974 30 103.703 28.3116 103.703 26.25V3.75C103.703 1.68844 101.974 3.94756e-06 99.8625 3.94756e-06Z" fill="#A6A6A6"/>
<path d="M36.4246 7.6825C36.4246 8.30875 36.2326 8.81031 35.8542 9.18437C35.4193 9.62781 34.8527 9.85094 34.1585 9.85094C33.495 9.85094 32.9284 9.62406 32.4637 9.17687C31.998 8.72312 31.7656 8.16625 31.7656 7.49969C31.7656 6.83312 31.998 6.27625 32.4637 5.82625C32.9284 5.37531 33.495 5.14844 34.1585 5.14844C34.4888 5.14844 34.8037 5.215 35.1043 5.33875C35.4039 5.46344 35.6478 5.63219 35.8245 5.84031L35.4231 6.23594C35.1149 5.88063 34.6952 5.70531 34.1585 5.70531C33.6745 5.70531 33.2549 5.87031 32.8987 6.20312C32.5463 6.53687 32.3696 6.96906 32.3696 7.49969C32.3696 8.03031 32.5463 8.46625 32.8987 8.8C33.2549 9.12906 33.6745 9.29781 34.1585 9.29781C34.6722 9.29781 35.1043 9.12906 35.4452 8.79625C35.6699 8.57594 35.7976 8.27219 35.8312 7.88406H34.1585V7.34219H36.39C36.4169 7.45937 36.4246 7.57281 36.4246 7.6825Z" fill="white" stroke="white" stroke-width="0.16" stroke-miterlimit="10"/>
<path d="M39.9659 5.80414H37.8698V7.22914H39.7595V7.77101H37.8698V9.19601H39.9659V9.7482H37.2764V5.25195H39.9659V5.80414Z" fill="white" stroke="white" stroke-width="0.16" stroke-miterlimit="10"/>
<path d="M42.4641 9.7482H41.8707V5.80414H40.585V5.25195H43.7508V5.80414H42.4641V9.7482Z" fill="white" stroke="white" stroke-width="0.16" stroke-miterlimit="10"/>
<path d="M46.041 9.7482V5.25195H46.6335V9.7482H46.041Z" fill="white" stroke="white" stroke-width="0.16" stroke-miterlimit="10"/>
<path d="M49.26 9.7482H48.6714V5.80414H47.3809V5.25195H50.5505V5.80414H49.26V9.7482Z" fill="white" stroke="white" stroke-width="0.16" stroke-miterlimit="10"/>
<path d="M56.5432 9.16937C56.089 9.62406 55.5263 9.85094 54.8551 9.85094C54.1801 9.85094 53.6174 9.62406 53.1632 9.16937C52.71 8.71562 52.4844 8.15875 52.4844 7.49969C52.4844 6.84062 52.71 6.28375 53.1632 5.83C53.6174 5.37531 54.1801 5.14844 54.8551 5.14844C55.5225 5.14844 56.0852 5.37531 56.5394 5.83375C56.9964 6.29125 57.2221 6.84437 57.2221 7.49969C57.2221 8.15875 56.9964 8.71562 56.5432 9.16937ZM53.6021 8.7925C53.9439 9.12906 54.3597 9.29781 54.8551 9.29781C55.3468 9.29781 55.7664 9.12906 56.1044 8.7925C56.4453 8.45594 56.6181 8.02375 56.6181 7.49969C56.6181 6.97562 56.4453 6.54344 56.1044 6.20688C55.7664 5.87031 55.3468 5.70156 54.8551 5.70156C54.3597 5.70156 53.9439 5.87031 53.6021 6.20688C53.2612 6.54344 53.0884 6.97562 53.0884 7.49969C53.0884 8.02375 53.2612 8.45594 53.6021 8.7925Z" fill="white" stroke="white" stroke-width="0.16" stroke-miterlimit="10"/>
<path d="M58.0547 9.7482V5.25195H58.7748L61.0141 8.74883H61.04L61.0141 7.88445V5.25195H61.6065V9.7482H60.9881L58.6433 6.07883H58.6174L58.6433 6.94695V9.7482H58.0547Z" fill="white" stroke="white" stroke-width="0.16" stroke-miterlimit="10"/>
<path d="M52.339 16.3148C50.5348 16.3148 49.0609 17.6555 49.0609 19.5052C49.0609 21.3398 50.5348 22.6945 52.339 22.6945C54.1471 22.6945 55.6211 21.3398 55.6211 19.5052C55.6211 17.6555 54.1471 16.3148 52.339 16.3148ZM52.339 21.4383C51.3491 21.4383 50.4973 20.6405 50.4973 19.5052C50.4973 18.3548 51.3491 17.5711 52.339 17.5711C53.329 17.5711 54.1846 18.3548 54.1846 19.5052C54.1846 20.6405 53.329 21.4383 52.339 21.4383ZM45.1864 16.3148C43.3783 16.3148 41.9082 17.6555 41.9082 19.5052C41.9082 21.3398 43.3783 22.6945 45.1864 22.6945C46.9935 22.6945 48.4646 21.3398 48.4646 19.5052C48.4646 17.6555 46.9935 16.3148 45.1864 16.3148ZM45.1864 21.4383C44.1954 21.4383 43.3409 20.6405 43.3409 19.5052C43.3409 18.3548 44.1954 17.5711 45.1864 17.5711C46.1764 17.5711 47.0281 18.3548 47.0281 19.5052C47.0281 20.6405 46.1764 21.4383 45.1864 21.4383ZM36.675 17.2927V18.6483H39.9907C39.8937 19.4058 39.6344 19.9627 39.2369 20.3508C38.7529 20.8195 37.9992 21.3398 36.675 21.3398C34.6346 21.3398 33.0368 19.732 33.0368 17.7398C33.0368 15.7477 34.6346 14.1398 36.675 14.1398C37.7783 14.1398 38.5811 14.5608 39.1735 15.1064L40.152 14.1511C39.3233 13.3786 38.221 12.7852 36.675 12.7852C33.877 12.7852 31.5254 15.008 31.5254 17.7398C31.5254 20.4717 33.877 22.6945 36.675 22.6945C38.1874 22.6945 39.3233 22.2108 40.2163 21.3033C41.1314 20.4098 41.4166 19.1536 41.4166 18.1392C41.4166 17.8242 41.3897 17.5345 41.3417 17.2927H36.675ZM71.479 18.3436C71.2092 17.6302 70.3767 16.3148 68.681 16.3148C67.0006 16.3148 65.6015 17.6077 65.6015 19.5052C65.6015 21.292 66.9862 22.6945 68.8423 22.6945C70.3431 22.6945 71.2092 21.8011 71.5655 21.2808L70.4516 20.5561C70.08 21.0867 69.574 21.4383 68.8423 21.4383C68.1154 21.4383 67.594 21.113 67.2598 20.4717L71.6298 18.7064L71.479 18.3436ZM67.0236 19.4058C66.9862 18.1758 68.0021 17.5458 68.7299 17.5458C69.3003 17.5458 69.7843 17.8242 69.9456 18.2227L67.0236 19.4058ZM63.4718 22.5005H64.9083V13.1255H63.4718V22.5005ZM61.1193 17.0255H61.0712C60.7486 16.6523 60.1331 16.3148 59.3534 16.3148C57.7172 16.3148 56.2212 17.7173 56.2212 19.5155C56.2212 21.3033 57.7172 22.6945 59.3534 22.6945C60.1331 22.6945 60.7486 22.3542 61.0712 21.9698H61.1193V22.4273C61.1193 23.647 60.4519 24.3023 59.3755 24.3023C58.4979 24.3023 57.9534 23.6836 57.7287 23.1633L56.4795 23.6723C56.8396 24.518 57.7931 25.5586 59.3755 25.5586C61.0597 25.5586 62.4808 24.5911 62.4808 22.237V16.5089H61.1193V17.0255ZM59.4763 21.4383C58.4863 21.4383 57.6577 20.6292 57.6577 19.5155C57.6577 18.3914 58.4863 17.5711 59.4763 17.5711C60.4519 17.5711 61.221 18.3914 61.221 19.5155C61.221 20.6292 60.4519 21.4383 59.4763 21.4383ZM78.2044 13.1255H74.7687V22.5005H76.2014V18.9483H78.2044C79.7955 18.9483 81.3558 17.8242 81.3558 16.0364C81.3558 14.2495 79.7916 13.1255 78.2044 13.1255ZM78.2418 17.6442H76.2014V14.4295H78.2418C79.3115 14.4295 79.9222 15.2967 79.9222 16.0364C79.9222 16.762 79.3115 17.6442 78.2418 17.6442ZM87.0979 16.297C86.0628 16.297 84.9864 16.7433 84.5437 17.7323L85.8151 18.2527C86.0887 17.7323 86.5919 17.5636 87.1238 17.5636C87.867 17.5636 88.6208 17.9995 88.6323 18.7692V18.8677C88.3731 18.7214 87.8181 18.5048 87.1354 18.5048C85.7661 18.5048 84.3709 19.2408 84.3709 20.6142C84.3709 21.8705 85.4924 22.6795 86.7532 22.6795C87.7173 22.6795 88.2492 22.2548 88.5834 21.7608H88.6323V22.4855H90.016V18.8892C90.016 17.227 88.7447 16.297 87.0979 16.297ZM86.9251 21.4345C86.4565 21.4345 85.8035 21.2077 85.8035 20.6405C85.8035 19.9148 86.6178 19.6364 87.3226 19.6364C87.9535 19.6364 88.2492 19.7723 88.6323 19.9514C88.52 20.8195 87.7547 21.4345 86.9251 21.4345ZM95.0571 16.5023L93.4104 20.5664H93.3614L91.6589 16.5023H90.114L92.672 22.1817L91.2124 25.342H92.7094L96.6511 16.5023H95.0571ZM82.1432 22.5005H83.5797V13.1255H82.1432V22.5005Z" fill="white"/>
<path d="M8.01542 5.65512C7.78977 5.88574 7.65918 6.2448 7.65918 6.7098V23.2961C7.65918 23.7611 7.78977 24.1201 8.01542 24.3507L8.07111 24.4014L17.5907 15.1107V14.8914L8.07111 5.60074L8.01542 5.65512Z" fill="url(#paint0_linear_2307_61045)"/>
<path d="M20.7605 18.208L17.5908 15.1096V14.8902L20.7643 11.7918L20.8354 11.8321L24.5937 13.9199C25.6662 14.5124 25.6662 15.4874 24.5937 16.0836L20.8354 18.1677L20.7605 18.208Z" fill="url(#paint1_linear_2307_61045)"/>
<path d="M20.8365 18.1674L17.5919 14.9996L8.0166 24.3492C8.37284 24.7149 8.95377 24.7589 9.6144 24.3933L20.8365 18.1674Z" fill="url(#paint2_linear_2307_61045)"/>
<path d="M20.8365 11.8312L9.6144 5.60528C8.95377 5.2434 8.37284 5.28746 8.0166 5.65309L17.5919 14.999L20.8365 11.8312Z" fill="url(#paint3_linear_2307_61045)"/>
<defs>
<linearGradient id="paint0_linear_2307_61045" x1="16.7455" y1="23.4688" x2="4.16228" y2="10.5807" gradientUnits="userSpaceOnUse">
<stop stop-color="#00A0FF"/>
<stop offset="0.0066" stop-color="#00A1FF"/>
<stop offset="0.2601" stop-color="#00BEFF"/>
<stop offset="0.5122" stop-color="#00D2FF"/>
<stop offset="0.7604" stop-color="#00DFFF"/>
<stop offset="1" stop-color="#00E3FF"/>
</linearGradient>
<linearGradient id="paint1_linear_2307_61045" x1="25.9903" y1="14.9988" x2="7.40292" y2="14.9988" gradientUnits="userSpaceOnUse">
<stop stop-color="#FFE000"/>
<stop offset="0.4087" stop-color="#FFBD00"/>
<stop offset="0.7754" stop-color="#FFA500"/>
<stop offset="1" stop-color="#FF9C00"/>
</linearGradient>
<linearGradient id="paint2_linear_2307_61045" x1="19.0722" y1="13.2775" x2="2.00832" y2="-4.19983" gradientUnits="userSpaceOnUse">
<stop stop-color="#FF3A44"/>
<stop offset="1" stop-color="#C31162"/>
</linearGradient>
<linearGradient id="paint3_linear_2307_61045" x1="5.6063" y1="29.8669" x2="13.2261" y2="22.0625" gradientUnits="userSpaceOnUse">
<stop stop-color="#32A071"/>
<stop offset="0.0685" stop-color="#2DA771"/>
<stop offset="0.4762" stop-color="#15CF74"/>
<stop offset="0.8009" stop-color="#06E775"/>
<stop offset="1" stop-color="#00F076"/>
</linearGradient>
</defs>
</svg>
