<svg width="16" height="17" viewBox="0 0 16 17" fill="none" xmlns="http://www.w3.org/2000/svg">
<g id="Home">
<path id="Subtract" fill-rule="evenodd" clip-rule="evenodd" d="M4.88853 13.1663H6.44453H6.72323C6.68639 13.0621 6.66634 12.9499 6.66634 12.833V11.4997C6.66634 10.9474 7.11406 10.4997 7.66634 10.4997H8.33301C8.88529 10.4997 9.33301 10.9474 9.33301 11.4997V12.833C9.33301 12.9499 9.31296 13.0621 9.27612 13.1663H9.55653H11.1125C11.7873 13.1594 12.3592 12.6678 12.4672 12.0016L12.6472 7.16231C12.7544 6.55368 12.4542 5.9459 11.9059 5.66097L8.61586 3.98164C8.22981 3.78346 7.77192 3.78346 7.38586 3.98164L4.09586 5.66097C3.54749 5.9459 3.24737 6.55368 3.35453 7.16231L3.53386 12.0016C3.64187 12.6678 4.21373 13.1594 4.88853 13.1663Z" fill="#A3A3A3"/>
</g>
</svg>
