<svg width="13" height="16" viewBox="0 0 13 16" fill="none" xmlns="http://www.w3.org/2000/svg">
<path fill-rule="evenodd" clip-rule="evenodd" d="M12.9992 6.69909C12.9992 5.02054 12.3115 3.41529 11.0962 2.25742C8.52308 -0.196485 4.47617 -0.196485 1.90304 2.25742C0.687769 3.41529 0 5.02054 0 6.69909C0 8.37764 0.687769 9.98289 1.90304 11.1408L6.49962 15.5824L11.0962 11.1408C12.3115 9.98289 12.9992 8.37764 12.9992 6.69909ZM8.32332 8.11622C8.81093 7.64202 9.09016 6.99352 9.09958 6.31342C9.07938 4.89759 7.91541 3.76612 6.49958 3.786C5.08374 3.76612 3.91978 4.89759 3.89958 6.31342C3.90899 6.99352 4.18823 7.64202 4.67584 8.11622C5.16344 8.59042 5.81948 8.85147 6.49958 8.84192C7.17968 8.85147 7.83571 8.59042 8.32332 8.11622Z" fill="#8C8C8C"/>
</svg>
