<svg width="20" height="20" viewBox="0 0 20 20" fill="none" xmlns="http://www.w3.org/2000/svg">
<g id="Location marked">
<g id="Vector">
<path id="Subtract" fill-rule="evenodd" clip-rule="evenodd" d="M14.9994 8.99937C14.9994 7.70818 14.4704 6.47338 13.5355 5.58271C11.5562 3.69509 8.4432 3.69509 6.46388 5.58271C5.52905 6.47338 5 7.70818 5 8.99937C5 10.2906 5.52905 11.5254 6.46388 12.416L9.99971 15.8327L13.5355 12.416C14.4704 11.5254 14.9994 10.2906 14.9994 8.99937ZM11.4026 10.0895C11.7776 9.72471 11.9924 9.22586 11.9997 8.70271C11.9841 7.61361 11.0888 6.74324 9.99967 6.75854C8.91057 6.74324 8.01521 7.61361 7.99967 8.70271C8.00692 9.22586 8.22171 9.72471 8.5968 10.0895C8.97188 10.4542 9.47652 10.6551 9.99967 10.6477C10.5228 10.6551 11.0275 10.4542 11.4026 10.0895Z" fill="#8C8C8C"/>
</g>
</g>
</svg>
