<svg width="12" height="12" viewBox="0 0 12 12" fill="none" xmlns="http://www.w3.org/2000/svg">
<path id="Union" fill-rule="evenodd" clip-rule="evenodd" d="M2.22168 4.85801C2.22168 3.402 3.402 2.22168 4.85801 2.22168C6.31401 2.22168 7.49433 3.402 7.49433 4.85801C7.49433 6.31401 6.31401 7.49433 4.85801 7.49433C3.402 7.49433 2.22168 6.31401 2.22168 4.85801ZM4.85801 0.72168C2.57358 0.72168 0.72168 2.57358 0.72168 4.85801C0.72168 7.14244 2.57358 8.99433 4.85801 8.99433C5.72905 8.99433 6.53721 8.72509 7.2038 8.2653L9.9977 11.0592C10.2906 11.3521 10.7655 11.3521 11.0584 11.0592C11.3513 10.7663 11.3513 10.2914 11.0584 9.99854L8.26461 7.20479C8.72482 6.53801 8.99433 5.72948 8.99433 4.85801C8.99433 2.57358 7.14244 0.72168 4.85801 0.72168Z" fill="#8C8C8C"/>
</svg>
