<svg width="24" height="24" viewBox="0 0 24 24" fill="none" xmlns="http://www.w3.org/2000/svg">
<path d="M7.33195 7.73793C6.96112 7.73591 6.72636 8.05236 6.91402 8.30127C7.24964 8.74644 7.84284 9.37307 8.73643 9.77457C9.63003 10.1761 10.624 10.2625 11.2872 10.2662C11.658 10.2682 11.8927 9.95173 11.7051 9.70282C11.3695 9.25765 10.7763 8.63102 9.88267 8.22952C8.98908 7.82802 7.99515 7.74154 7.33195 7.73793Z" fill="white" stroke="black"/>
<mask id="path-2-inside-1_1_8868" fill="white">
<path fill-rule="evenodd" clip-rule="evenodd" d="M16.2138 10.474C15.7401 10.474 15.2857 10.2858 14.9507 9.95079L14.4563 9.45635C13.0996 8.09973 10.9001 8.09977 9.54346 9.45643L9.04892 9.95099C8.71409 10.2858 8.25994 10.474 7.78641 10.474C6.80034 10.474 6.00098 11.2733 6.00098 12.2594V13.8618C6.00098 15.7329 7.51777 17.2497 9.38883 17.2497H14.6122C16.4833 17.2497 18.0001 15.7329 18.0001 13.8618V12.2602C18.0001 11.2737 17.2003 10.474 16.2138 10.474Z"/>
</mask>
<path fill-rule="evenodd" clip-rule="evenodd" d="M16.2138 10.474C15.7401 10.474 15.2857 10.2858 14.9507 9.95079L14.4563 9.45635C13.0996 8.09973 10.9001 8.09977 9.54346 9.45643L9.04892 9.95099C8.71409 10.2858 8.25994 10.474 7.78641 10.474C6.80034 10.474 6.00098 11.2733 6.00098 12.2594V13.8618C6.00098 15.7329 7.51777 17.2497 9.38883 17.2497H14.6122C16.4833 17.2497 18.0001 15.7329 18.0001 13.8618V12.2602C18.0001 11.2737 17.2003 10.474 16.2138 10.474Z" fill="white"/>
<path d="M13.7492 10.1635L14.2436 10.6579L15.6578 9.24367L15.1634 8.74923L13.7492 10.1635ZM9.75604 10.6581L10.2506 10.1635L8.83634 8.74934L8.3418 9.24389L9.75604 10.6581ZM7.00098 13.8618V12.2594H5.00098V13.8618H7.00098ZM14.6122 16.2497H9.38883V18.2497H14.6122V16.2497ZM17.0001 12.2602V13.8618H19.0001V12.2602H17.0001ZM19.0001 12.2602C19.0001 10.7214 17.7526 9.47395 16.2138 9.47395V11.474C16.6481 11.474 17.0001 11.826 17.0001 12.2602H19.0001ZM14.6122 18.2497C17.0356 18.2497 19.0001 16.2852 19.0001 13.8618H17.0001C17.0001 15.1806 15.931 16.2497 14.6122 16.2497V18.2497ZM5.00098 13.8618C5.00098 16.2852 6.96548 18.2497 9.38883 18.2497V16.2497C8.07005 16.2497 7.00098 15.1806 7.00098 13.8618H5.00098ZM7.78641 9.47395C6.24806 9.47395 5.00098 10.721 5.00098 12.2594H7.00098C7.00098 11.8256 7.35263 11.474 7.78641 11.474V9.47395ZM8.3418 9.24389C8.1945 9.3912 7.99472 9.47395 7.78641 9.47395V11.474C8.52517 11.474 9.23367 11.1805 9.75604 10.6581L8.3418 9.24389ZM14.2436 10.6579C14.7662 11.1804 15.4749 11.474 16.2138 11.474V9.47395C16.0053 9.47395 15.8053 9.39112 15.6578 9.24367L14.2436 10.6579ZM15.1634 8.74923C13.4162 7.0021 10.5835 7.00214 8.83634 8.74934L10.2506 10.1635C11.2167 9.1974 12.7831 9.19737 13.7492 10.1635L15.1634 8.74923Z" fill="black" mask="url(#path-2-inside-1_1_8868)"/>
<path fill-rule="evenodd" clip-rule="evenodd" d="M11.8309 9.8528C11.9237 9.42827 12.2869 9.28638 12.692 9.57176C12.8253 9.66565 12.9492 9.60694 12.9688 9.44062C12.9885 9.27431 12.8963 9.06337 12.7631 8.96947C12.0806 8.4886 11.4331 8.75644 11.3331 9.60398L11.3445 9.61196C11.2531 10.4597 11.7437 11.5198 12.4246 11.9984C13.1106 12.4804 13.7619 12.2123 13.8626 11.3615C13.8823 11.1952 13.7901 10.9844 13.6567 10.8907C13.5233 10.7969 13.3993 10.8558 13.3796 11.0221C13.3208 11.5187 12.9327 11.7031 12.4959 11.3961C12.0591 11.0891 11.7708 10.4294 11.8296 9.93285C11.8326 9.90704 11.833 9.88015 11.8309 9.8528Z" fill="black"/>
<path d="M16.2872 7.73793C16.658 7.73591 16.8928 8.05236 16.7051 8.30127C16.3695 8.74644 15.7763 9.37307 14.8827 9.77457C13.9891 10.1761 12.9952 10.2625 12.332 10.2662C11.9612 10.2682 11.7264 9.95173 11.9141 9.70282C12.2497 9.25765 12.8429 8.63102 13.7365 8.22952C14.6301 7.82802 15.624 7.74154 16.2872 7.73793Z" fill="white" stroke="black"/>
</svg>
