<svg width="32" height="32" viewBox="0 0 32 32" fill="none" xmlns="http://www.w3.org/2000/svg">
<path d="M8.71008 11.1028C8.36559 10.6125 8.84117 9.97145 9.559 9.95849C10.4617 9.9422 12.0168 10.0239 13.4139 10.6517C14.8111 11.2794 15.6796 12.2867 16.1128 12.9032C16.4573 13.3934 15.9817 14.0345 15.2639 14.0475C14.3612 14.0638 12.8061 13.982 11.4089 13.3543C10.0118 12.7265 9.14328 11.7193 8.71008 11.1028Z" fill="#474747" stroke="white" stroke-width="0.8"/>
<path fill-rule="evenodd" clip-rule="evenodd" d="M21.6171 13.9653C20.9854 13.9653 20.3797 13.7144 19.933 13.2678L18.8269 12.1618C17.2648 10.5997 14.7322 10.5997 13.1701 12.1619L12.0639 13.2681C11.6175 13.7145 11.012 13.9653 10.3806 13.9653C9.06582 13.9653 8 15.0312 8 16.3459V18.9996C8 21.2088 9.79086 22.9996 12 22.9996H19.9988C22.2079 22.9996 23.9988 21.2088 23.9988 18.9996V16.347C23.9988 15.0317 22.9325 13.9653 21.6171 13.9653Z" fill="#474747"/>
<path d="M18.4734 12.5153L19.5795 13.6213L20.2866 12.9142L19.1805 11.8082L18.4734 12.5153ZM12.4175 13.6216L13.5237 12.5154L12.8165 11.8083L11.7104 12.9145L12.4175 13.6216ZM8.5 18.9996V16.3459H7.5V18.9996H8.5ZM19.9988 22.4996H12V23.4996H19.9988V22.4996ZM23.4988 16.347V18.9996H24.4988V16.347H23.4988ZM24.4988 16.347C24.4988 14.7555 23.2086 13.4653 21.6171 13.4653V14.4653C22.6563 14.4653 23.4988 15.3078 23.4988 16.347H24.4988ZM19.9988 23.4996C22.4841 23.4996 24.4988 21.4849 24.4988 18.9996H23.4988C23.4988 20.9326 21.9318 22.4996 19.9988 22.4996V23.4996ZM7.5 18.9996C7.5 21.4849 9.51472 23.4996 12 23.4996V22.4996C10.067 22.4996 8.5 20.9326 8.5 18.9996H7.5ZM10.3806 13.4653C8.78968 13.4653 7.5 14.755 7.5 16.3459H8.5C8.5 15.3073 9.34196 14.4653 10.3806 14.4653V13.4653ZM11.7104 12.9145C11.3577 13.2672 10.8793 13.4653 10.3806 13.4653V14.4653C11.1446 14.4653 11.8773 14.1618 12.4175 13.6216L11.7104 12.9145ZM19.5795 13.6213C20.1199 14.1617 20.8528 14.4653 21.6171 14.4653V13.4653C21.1181 13.4653 20.6394 13.2671 20.2866 12.9142L19.5795 13.6213ZM19.1805 11.8082C17.4231 10.0509 14.5739 10.0509 12.8165 11.8083L13.5237 12.5154C14.8905 11.1485 17.1065 11.1485 18.4734 12.5153L19.1805 11.8082Z" fill="white"/>
<path fill-rule="evenodd" clip-rule="evenodd" d="M15.5102 12.5156C15.7325 12.6718 15.8861 13.0231 15.8533 13.3003C15.7819 13.9034 16.1322 14.7142 16.6731 15.0944C17.214 15.4745 17.6876 15.2426 17.7589 14.6395C17.7917 14.3623 17.9985 14.2643 18.2208 14.4205C18.4431 14.5767 18.5968 14.928 18.564 15.2052C18.4228 16.3986 17.5105 16.7701 16.5543 16.0982C15.5982 15.4262 14.9071 13.928 15.0483 12.7346C15.0811 12.4574 15.2879 12.3594 15.5102 12.5156Z" fill="white"/>
<path d="M22.7821 11.1028C23.1266 10.6125 22.651 9.97145 21.9332 9.95849C21.0305 9.9422 19.4754 10.0239 18.0783 10.6517C16.6811 11.2794 15.8126 12.2867 15.3794 12.9032C15.0349 13.3934 15.5105 14.0345 16.2283 14.0475C17.131 14.0638 18.6861 13.982 20.0832 13.3543C21.4804 12.7265 22.3489 11.7193 22.7821 11.1028Z" fill="#474747" stroke="white" stroke-width="0.8"/>
</svg>
