<svg width="40" height="40" viewBox="0 0 40 40" fill="none" xmlns="http://www.w3.org/2000/svg">
<rect width="40" height="40" rx="20" fill="#F2F2F2"/>
<path fill-rule="evenodd" clip-rule="evenodd" d="M29.6 20.2273C29.6 19.5182 29.5364 18.8364 29.4182 18.1818H20V22.05H25.3818C25.15 23.3 24.4455 24.3591 23.3864 25.0682V27.5773H26.6182C28.5091 25.8364 29.6 23.2727 29.6 20.2273Z" fill="#4285F4"/>
<path fill-rule="evenodd" clip-rule="evenodd" d="M19.9998 29.9998C22.6998 29.9998 24.9635 29.1044 26.618 27.5771L23.3862 25.068C22.4907 25.668 21.3453 26.0226 19.9998 26.0226C17.3953 26.0226 15.1907 24.2635 14.4044 21.8998H11.0635V24.4908C12.7089 27.7589 16.0907 29.9998 19.9998 29.9998Z" fill="#34A853"/>
<path fill-rule="evenodd" clip-rule="evenodd" d="M14.4045 21.9C14.2045 21.3 14.0909 20.6591 14.0909 20C14.0909 19.341 14.2045 18.7 14.4045 18.1V15.5091H11.0636C10.3864 16.8591 10 18.3864 10 20C10 21.6137 10.3864 23.141 11.0636 24.491L14.4045 21.9Z" fill="#FBBC05"/>
<path fill-rule="evenodd" clip-rule="evenodd" d="M19.9998 13.9773C21.468 13.9773 22.7862 14.4818 23.8226 15.4727L26.6908 12.6045C24.9589 10.9909 22.6953 10 19.9998 10C16.0907 10 12.7089 12.2409 11.0635 15.5091L14.4044 18.1C15.1907 15.7364 17.3953 13.9773 19.9998 13.9773Z" fill="#EA4335"/>
</svg>
