<svg width="40" height="40" viewBox="0 0 40 40" fill="none" xmlns="http://www.w3.org/2000/svg">
<g clip-path="url(#clip0_4490_101327)">
<path d="M20 40C31.0456 40 40 31.0456 40 20C40 8.9544 31.0456 0 20 0C8.9544 0 0 8.9544 0 20C0 31.0456 8.9544 40 20 40Z" fill="#FFEC00"/>
<path fill-rule="evenodd" clip-rule="evenodd" d="M20 25.1001C24.5068 25.1001 28.1602 22.36 28.1602 18.98C28.1602 15.5999 24.5068 12.8598 20 12.8598C15.4933 12.8598 11.8398 15.5999 11.8398 18.98C11.8398 20.9918 13.1342 22.777 15.1324 23.8925L14.0509 27.1372C13.9921 27.3134 14.1843 27.4675 14.3435 27.372L18.3409 24.9735C18.8766 25.0565 19.4315 25.1001 20 25.1001Z" fill="#3E201E"/>
</g>
<defs>
<clipPath id="clip0_4490_101327">
<rect width="40" height="40" fill="white"/>
</clipPath>
</defs>
</svg>
