<svg width="24" height="24" viewBox="0 0 24 24" fill="none" transform="rotate(180)" xmlns="http://www.w3.org/2000/svg">
<path d="M7.53033 10.5303C7.82322 10.2374 7.82322 9.76256 7.53033 9.46967C7.23744 9.17678 6.76256 9.17678 6.46967 9.46967L7.53033 10.5303ZM4.46967 11.4697C4.17678 11.7626 4.17678 12.2374 4.46967 12.5303C4.76256 12.8232 5.23744 12.8232 5.53033 12.5303L4.46967 11.4697ZM5.53033 11.4697C5.23744 11.1768 4.76256 11.1768 4.46967 11.4697C4.17678 11.7626 4.17678 12.2374 4.46967 12.5303L5.53033 11.4697ZM6.46967 14.5303C6.76256 14.8232 7.23744 14.8232 7.53033 14.5303C7.82322 14.2374 7.82322 13.7626 7.53033 13.4697L6.46967 14.5303ZM5 11.25C4.58579 11.25 4.25 11.5858 4.25 12C4.25 12.4142 4.58579 12.75 5 12.75V11.25ZM19 12.75C19.4142 12.75 19.75 12.4142 19.75 12C19.75 11.5858 19.4142 11.25 19 11.25V12.75ZM6.46967 9.46967L4.46967 11.4697L5.53033 12.5303L7.53033 10.5303L6.46967 9.46967ZM4.46967 12.5303L6.46967 14.5303L7.53033 13.4697L5.53033 11.4697L4.46967 12.5303ZM5 12.75H19V11.25H5V12.75Z" fill="black"/>
</svg>
