<svg width="14" height="14" viewBox="0 0 14 14" fill="none" xmlns="http://www.w3.org/2000/svg">
<path d="M1.04175 9.95341C1.04175 9.67727 0.817891 9.45341 0.541748 9.45341C0.265606 9.45341 0.0417483 9.67727 0.0417483 9.95341H1.04175ZM0.0417483 13.3753C0.0417483 13.6515 0.265606 13.8753 0.541748 13.8753C0.817891 13.8753 1.04175 13.6515 1.04175 13.3753H0.0417483ZM0.541748 12.8753C0.265606 12.8753 0.041748 13.0992 0.041748 13.3753C0.041748 13.6515 0.265606 13.8753 0.541748 13.8753V12.8753ZM3.96366 13.8753C4.23981 13.8753 4.46366 13.6515 4.46366 13.3753C4.46366 13.0992 4.23981 12.8753 3.96366 12.8753V13.8753ZM0.188195 13.0218C-0.0070675 13.217 -0.0070675 13.5336 0.188195 13.7289C0.383457 13.9241 0.700039 13.9241 0.895301 13.7289L0.188195 13.0218ZM5.47863 9.14555C5.6739 8.95028 5.6739 8.6337 5.47863 8.43844C5.28337 8.24318 4.96679 8.24318 4.77153 8.43844L5.47863 9.14555ZM9.95317 0.0419924C9.67702 0.0419924 9.45317 0.26585 9.45317 0.541992C9.45317 0.818135 9.67702 1.04199 9.95317 1.04199V0.0419924ZM13.3751 1.04199C13.6512 1.04199 13.8751 0.818135 13.8751 0.541992C13.8751 0.26585 13.6512 0.0419924 13.3751 0.0419924V1.04199ZM13.8751 0.541992C13.8751 0.26585 13.6512 0.0419922 13.3751 0.0419922C13.0989 0.0419922 12.8751 0.26585 12.8751 0.541992H13.8751ZM12.8751 3.96391C12.8751 4.24005 13.0989 4.46391 13.3751 4.46391C13.6512 4.46391 13.8751 4.24005 13.8751 3.96391H12.8751ZM13.7286 0.895546C13.9239 0.700283 13.9239 0.383701 13.7286 0.188439C13.5334 -0.00682336 13.2168 -0.00682336 13.0215 0.188439L13.7286 0.895546ZM8.43819 4.77177C8.24293 4.96703 8.24293 5.28362 8.43819 5.47888C8.63346 5.67414 8.95004 5.67414 9.1453 5.47888L8.43819 4.77177ZM0.0417483 9.95341V13.3753H1.04175V9.95341H0.0417483ZM0.541748 13.8753H3.96366V12.8753H0.541748V13.8753ZM0.895301 13.7289L5.47863 9.14555L4.77153 8.43844L0.188195 13.0218L0.895301 13.7289ZM9.95317 1.04199H13.3751V0.0419924H9.95317V1.04199ZM12.8751 0.541992V3.96391H13.8751V0.541992H12.8751ZM13.0215 0.188439L8.43819 4.77177L9.1453 5.47888L13.7286 0.895546L13.0215 0.188439Z" fill="white"/>
</svg>
