<svg width="32" height="32" viewBox="0 0 32 32" fill="none" xmlns="http://www.w3.org/2000/svg">
<path d="M10 15.75C9.58579 15.75 9.25 16.0858 9.25 16.5C9.25 16.9142 9.58579 17.25 10 17.25V15.75ZM22 17.25C22.4142 17.25 22.75 16.9142 22.75 16.5C22.75 16.0858 22.4142 15.75 22 15.75V17.25ZM10 19.75C9.58579 19.75 9.25 20.0858 9.25 20.5C9.25 20.9142 9.58579 21.25 10 21.25V19.75ZM22 21.25C22.4142 21.25 22.75 20.9142 22.75 20.5C22.75 20.0858 22.4142 19.75 22 19.75V21.25ZM10 11.75C9.58579 11.75 9.25 12.0858 9.25 12.5C9.25 12.9142 9.58579 13.25 10 13.25V11.75ZM22 13.25C22.4142 13.25 22.75 12.9142 22.75 12.5C22.75 12.0858 22.4142 11.75 22 11.75V13.25ZM10 17.25H22V15.75H10V17.25ZM10 21.25H22V19.75H10V21.25ZM10 13.25H22V11.75H10V13.25Z" fill="black"/>
</svg>
