<svg width="32" height="32" viewBox="0 0 32 32" fill="none" xmlns="http://www.w3.org/2000/svg">
<path fill-rule="evenodd" clip-rule="evenodd" d="M10.8906 16.3332C10.8911 13.736 12.7261 11.5008 15.2735 10.9946C17.8208 10.4884 20.3711 11.852 21.3646 14.2517C22.3581 16.6513 21.5182 19.4186 19.3585 20.8612C17.1988 22.3037 14.3209 22.0199 12.4846 20.1832C11.4637 19.162 10.8904 17.7771 10.8906 16.3332V16.3332Z" stroke="#474747" stroke-width="1.5" stroke-linecap="round" stroke-linejoin="round"/>
<path fill-rule="evenodd" clip-rule="evenodd" d="M14 16.3336C14.0003 15.2206 14.7868 14.2628 15.8784 14.0459C16.9701 13.8291 18.0629 14.4135 18.4886 15.4419C18.9143 16.4703 18.5543 17.6562 17.6287 18.2743C16.7032 18.8925 15.4699 18.7707 14.683 17.9836C14.2455 17.5459 13.9998 16.9524 14 16.3336Z" fill="#FF1A5B" stroke="#474747" stroke-width="1.5" stroke-linecap="round" stroke-linejoin="round"/>
<path d="M22.2971 15.5837C21.8829 15.5837 21.5471 15.9194 21.5471 16.3337C21.5471 16.7479 21.8829 17.0837 22.2971 17.0837V15.5837ZM24.0013 17.0837C24.4155 17.0837 24.7513 16.7479 24.7513 16.3337C24.7513 15.9194 24.4155 15.5837 24.0013 15.5837V17.0837ZM8.66797 15.5837C8.25376 15.5837 7.91797 15.9194 7.91797 16.3337C7.91797 16.7479 8.25376 17.0837 8.66797 17.0837V15.5837ZM10.3722 17.0837C10.7864 17.0837 11.1222 16.7479 11.1222 16.3337C11.1222 15.9194 10.7864 15.5837 10.3722 15.5837V17.0837ZM15.5846 10.3712C15.5846 10.7854 15.9204 11.1212 16.3346 11.1212C16.7488 11.1212 17.0846 10.7854 17.0846 10.3712H15.5846ZM17.0846 8.66699C17.0846 8.25278 16.7488 7.91699 16.3346 7.91699C15.9204 7.91699 15.5846 8.25278 15.5846 8.66699H17.0846ZM15.5846 24.0003C15.5846 24.4145 15.9204 24.7503 16.3346 24.7503C16.7488 24.7503 17.0846 24.4145 17.0846 24.0003H15.5846ZM17.0846 22.2961C17.0846 21.8819 16.7488 21.5461 16.3346 21.5461C15.9204 21.5461 15.5846 21.8819 15.5846 22.2961H17.0846ZM22.2971 17.0837H24.0013V15.5837H22.2971V17.0837ZM8.66797 17.0837H10.3722V15.5837H8.66797V17.0837ZM17.0846 10.3712V8.66699H15.5846V10.3712H17.0846ZM17.0846 24.0003V22.2961H15.5846V24.0003H17.0846Z" fill="#474747"/>
</svg>
