<svg width="24" height="24" viewBox="0 0 24 24" fill="none" xmlns="http://www.w3.org/2000/svg">
<path fill-rule="evenodd" clip-rule="evenodd" d="M8.16699 12.25C8.16736 10.3021 9.54362 8.62574 11.4541 8.24606C13.3646 7.86638 15.2773 8.88913 16.0224 10.6889C16.7676 12.4886 16.1376 14.564 14.5179 15.646C12.8981 16.7279 10.7397 16.515 9.36249 15.1375C8.59683 14.3716 8.16679 13.3329 8.16699 12.25V12.25Z" stroke="black" stroke-linecap="round" stroke-linejoin="round"/>
<path fill-rule="evenodd" clip-rule="evenodd" d="M10.5 12.25C10.5002 11.4153 11.0901 10.6969 11.9088 10.5343C12.7276 10.3716 13.5472 10.81 13.8665 11.5813C14.1857 12.3525 13.9157 13.2419 13.2215 13.7056C12.5274 14.1692 11.6024 14.0779 11.0123 13.4875C10.6841 13.1593 10.4999 12.7141 10.5 12.25Z" fill="#FD3D51" stroke="black" stroke-linecap="round" stroke-linejoin="round"/>
<path d="M16.7219 11.75C16.4457 11.75 16.2219 11.9739 16.2219 12.25C16.2219 12.5261 16.4457 12.75 16.7219 12.75V11.75ZM18 12.75C18.2762 12.75 18.5 12.5261 18.5 12.25C18.5 11.9739 18.2762 11.75 18 11.75V12.75ZM6.5 11.75C6.22386 11.75 6 11.9739 6 12.25C6 12.5261 6.22386 12.75 6.5 12.75V11.75ZM7.77814 12.75C8.05429 12.75 8.27814 12.5261 8.27814 12.25C8.27814 11.9739 8.05429 11.75 7.77814 11.75V12.75ZM11.75 7.77814C11.75 8.05429 11.9739 8.27814 12.25 8.27814C12.5261 8.27814 12.75 8.05429 12.75 7.77814H11.75ZM12.75 6.5C12.75 6.22386 12.5261 6 12.25 6C11.9739 6 11.75 6.22386 11.75 6.5H12.75ZM11.75 18C11.75 18.2762 11.9739 18.5 12.25 18.5C12.5261 18.5 12.75 18.2762 12.75 18H11.75ZM12.75 16.7219C12.75 16.4457 12.5261 16.2219 12.25 16.2219C11.9739 16.2219 11.75 16.4457 11.75 16.7219H12.75ZM16.7219 12.75H18V11.75H16.7219V12.75ZM6.5 12.75H7.77814V11.75H6.5V12.75ZM12.75 7.77814V6.5H11.75V7.77814H12.75ZM12.75 18V16.7219H11.75V18H12.75Z" fill="black"/>
</svg>
