<svg width="23" height="24" viewBox="0 0 23 24" fill="none" xmlns="http://www.w3.org/2000/svg">
<path fill-rule="evenodd" clip-rule="evenodd" d="M19.7139 6.35187V16.9767C19.7139 17.5794 19.4492 18.1518 18.9898 18.542C18.5304 18.9323 17.9228 19.101 17.3279 19.0035L14.6932 18.5728L8.30396 20.2159L5.00608 19.676C4.01273 19.5138 3.28328 18.6557 3.2832 17.6492V7.02435C3.28319 6.42159 3.54796 5.84925 4.00735 5.45901C4.46673 5.06877 5.07435 4.90003 5.66918 4.99751L8.30396 5.42823L14.6932 3.78516L17.991 4.32502C18.9844 4.48721 19.7138 5.34536 19.7139 6.35187Z" fill="#474747" stroke="white" stroke-linecap="round" stroke-linejoin="round"/>
<path fill-rule="evenodd" clip-rule="evenodd" d="M8.30762 5.42673V20.2144V5.42673ZM14.697 3.78418V18.5718V3.78418Z" fill="#474747"/>
<path d="M8.80762 5.42673C8.80762 5.15058 8.58376 4.92673 8.30762 4.92673C8.03147 4.92673 7.80762 5.15058 7.80762 5.42673H8.80762ZM7.80762 20.2144C7.80762 20.4905 8.03147 20.7144 8.30762 20.7144C8.58376 20.7144 8.80762 20.4905 8.80762 20.2144H7.80762ZM15.197 3.78418C15.197 3.50804 14.9732 3.28418 14.697 3.28418C14.4209 3.28418 14.197 3.50804 14.197 3.78418H15.197ZM14.197 18.5718C14.197 18.848 14.4209 19.0718 14.697 19.0718C14.9732 19.0718 15.197 18.848 15.197 18.5718H14.197ZM7.80762 5.42673V20.2144H8.80762V5.42673H7.80762ZM14.197 3.78418V18.5718H15.197V3.78418H14.197Z" fill="white"/>
</svg>
