<svg width="24" height="24" viewBox="0 0 24 24" fill="none" xmlns="http://www.w3.org/2000/svg">
<path d="M9.25 18.733C9.25 19.1472 9.58579 19.483 10 19.483C10.4142 19.483 10.75 19.1472 10.75 18.733H9.25ZM10.75 15C10.75 14.5858 10.4142 14.25 10 14.25C9.58579 14.25 9.25 14.5858 9.25 15H10.75ZM10 15.75C10.4142 15.75 10.75 15.4142 10.75 15C10.75 14.5858 10.4142 14.25 10 14.25V15.75ZM6.267 14.25C5.85279 14.25 5.517 14.5858 5.517 15C5.517 15.4142 5.85279 15.75 6.267 15.75L6.267 14.25ZM10.5303 15.5303C10.8232 15.2374 10.8232 14.7626 10.5303 14.4697C10.2374 14.1768 9.76256 14.1768 9.46967 14.4697L10.5303 15.5303ZM4.46967 19.4697C4.17678 19.7626 4.17678 20.2374 4.46967 20.5303C4.76256 20.8232 5.23744 20.8232 5.53033 20.5303L4.46967 19.4697ZM15.0005 9.25C14.5863 9.25 14.2505 9.58579 14.2505 10C14.2505 10.4142 14.5863 10.75 15.0005 10.75L15.0005 9.25ZM18.7335 10.75C19.1477 10.75 19.4835 10.4142 19.4835 10C19.4835 9.58579 19.1477 9.25 18.7335 9.25V10.75ZM15.7505 6.267C15.7505 5.85278 15.4147 5.517 15.0005 5.517C14.5863 5.517 14.2505 5.85278 14.2505 6.267L15.7505 6.267ZM14.2505 10C14.2505 10.4142 14.5863 10.75 15.0005 10.75C15.4147 10.75 15.7505 10.4142 15.7505 10L14.2505 10ZM20.5308 5.53033C20.8237 5.23744 20.8237 4.76256 20.5308 4.46967C20.2379 4.17678 19.763 4.17678 19.4701 4.46967L20.5308 5.53033ZM14.4701 9.46967C14.1772 9.76256 14.1772 10.2374 14.4701 10.5303C14.763 10.8232 15.2379 10.8232 15.5308 10.5303L14.4701 9.46967ZM10.75 18.733L10.75 15H9.25L9.25 18.733H10.75ZM10 14.25H6.267L6.267 15.75H10V14.25ZM9.46967 14.4697L4.46967 19.4697L5.53033 20.5303L10.5303 15.5303L9.46967 14.4697ZM15.0005 10.75L18.7335 10.75V9.25L15.0005 9.25L15.0005 10.75ZM14.2505 6.267L14.2505 10L15.7505 10V6.267L14.2505 6.267ZM19.4701 4.46967L14.4701 9.46967L15.5308 10.5303L20.5308 5.53033L19.4701 4.46967Z" fill="white"/>
</svg>
