<svg width="24" height="24" viewBox="0 0 24 24" fill="none" xmlns="http://www.w3.org/2000/svg">
<g filter="url(#filter0_i_2202_101956)">
<path fill-rule="evenodd" clip-rule="evenodd" d="M15.1697 6.02571L12 0L8.83029 6.02571C8.60636 6.46605 8.28225 6.8477 7.884 7.14C7.48381 7.43379 7.02074 7.63041 6.53143 7.71429L0 8.99486L4.56 14.448C5.18361 15.1315 5.47787 16.053 5.36571 16.9714L4.49829 24L10.512 21.0857C10.9759 20.861 11.4845 20.7438 12 20.7429C12.4836 20.7443 12.9598 20.8619 13.3886 21.0857L19.5429 23.82L18.6754 16.8754C18.5658 15.9591 18.8606 15.0404 19.4829 14.3589L24 8.99486L17.4686 7.71429C16.9787 7.63066 16.515 7.43403 16.1143 7.14C15.7167 6.8475 15.3932 6.46587 15.1697 6.02571Z" fill="#BABABA"/>
</g>
<defs>
<filter id="filter0_i_2202_101956" x="0" y="0" width="24" height="28" filterUnits="userSpaceOnUse" color-interpolation-filters="sRGB">
<feFlood flood-opacity="0" result="BackgroundImageFix"/>
<feBlend mode="normal" in="SourceGraphic" in2="BackgroundImageFix" result="shape"/>
<feColorMatrix in="SourceAlpha" type="matrix" values="0 0 0 0 0 0 0 0 0 0 0 0 0 0 0 0 0 0 127 0" result="hardAlpha"/>
<feOffset dy="4"/>
<feGaussianBlur stdDeviation="2"/>
<feComposite in2="hardAlpha" operator="arithmetic" k2="-1" k3="1"/>
<feColorMatrix type="matrix" values="0 0 0 0 0 0 0 0 0 0 0 0 0 0 0 0 0 0 0.16 0"/>
<feBlend mode="normal" in2="shape" result="effect1_innerShadow_2202_101956"/>
</filter>
</defs>
</svg>
