<svg width="25" height="24" viewBox="0 0 25 24" fill="none" xmlns="http://www.w3.org/2000/svg">
<path d="M5.94899 5.8883C5.57743 5.89216 5.34208 6.20939 5.52357 6.46174C5.91051 6.99972 6.64613 7.82322 7.793 8.33852C8.93987 8.85383 10.2241 8.93787 11.0162 8.92966C11.3878 8.92581 11.6231 8.60857 11.4416 8.35622C11.0547 7.81824 10.3191 6.99474 9.17221 6.47944C8.02534 5.96414 6.74113 5.88009 5.94899 5.8883Z" fill="white" stroke="#474747"/>
<mask id="path-2-inside-1_65_9864" fill="white">
<path fill-rule="evenodd" clip-rule="evenodd" d="M18.2087 9.96507C17.625 9.96507 17.0633 9.74233 16.6383 9.34232L15.2412 8.02746C13.701 6.57792 11.2986 6.57793 9.7584 8.02746L8.36122 9.3424C7.93624 9.74236 7.37465 9.96507 6.79105 9.96507C5.52574 9.96507 4.5 10.9908 4.5 12.2561V15C4.5 17.2092 6.29086 19 8.5 19H16.5C18.7091 19 20.5 17.2092 20.5 15V12.2564C20.5 10.9909 19.4741 9.96507 18.2087 9.96507Z"/>
</mask>
<path fill-rule="evenodd" clip-rule="evenodd" d="M18.2087 9.96507C17.625 9.96507 17.0633 9.74233 16.6383 9.34232L15.2412 8.02746C13.701 6.57792 11.2986 6.57793 9.7584 8.02746L8.36122 9.3424C7.93624 9.74236 7.37465 9.96507 6.79105 9.96507C5.52574 9.96507 4.5 10.9908 4.5 12.2561V15C4.5 17.2092 6.29086 19 8.5 19H16.5C18.7091 19 20.5 17.2092 20.5 15V12.2564C20.5 10.9909 19.4741 9.96507 18.2087 9.96507Z" fill="white"/>
<path d="M16.6383 9.34232L17.3237 8.61411L16.6383 9.34232ZM14.5559 8.75567L15.953 10.0705L17.3237 8.61411L15.9266 7.29924L14.5559 8.75567ZM9.04657 10.0706L10.4438 8.75567L9.07305 7.29924L7.67587 8.61418L9.04657 10.0706ZM5.5 15V12.2561H3.5V15H5.5ZM16.5 18H8.5V20H16.5V18ZM19.5 12.2564V15H21.5V12.2564H19.5ZM21.5 12.2564C21.5 10.4387 20.0264 8.96507 18.2087 8.96507V10.9651C18.9219 10.9651 19.5 11.5432 19.5 12.2564H21.5ZM16.5 20C19.2614 20 21.5 17.7614 21.5 15H19.5C19.5 16.6569 18.1569 18 16.5 18V20ZM3.5 15C3.5 17.7614 5.73858 20 8.5 20V18C6.84315 18 5.5 16.6569 5.5 15H3.5ZM6.79105 8.96507C4.97345 8.96507 3.5 10.4385 3.5 12.2561H5.5C5.5 11.5431 6.07802 10.9651 6.79105 10.9651V8.96507ZM7.67587 8.61418C7.43639 8.83957 7.11992 8.96507 6.79105 8.96507V10.9651C7.62937 10.9651 8.4361 10.6452 9.04657 10.0706L7.67587 8.61418ZM15.953 10.0705C16.5635 10.6451 17.3703 10.9651 18.2087 10.9651V8.96507C17.8797 8.96507 17.5632 8.83954 17.3237 8.61411L15.953 10.0705ZM15.9266 7.29924C14.0013 5.48733 10.9983 5.48733 9.07305 7.29924L10.4438 8.75567C11.5989 7.66852 13.4007 7.66852 14.5559 8.75567L15.9266 7.29924Z" fill="#474747" mask="url(#path-2-inside-1_65_9864)"/>
<path fill-rule="evenodd" clip-rule="evenodd" d="M12.5835 8.90943C12.6861 8.44862 13.077 8.29961 13.5148 8.61622C13.6909 8.74361 13.8535 8.66699 13.8779 8.44507C13.9023 8.22316 13.7793 7.94 13.6031 7.81261C12.7968 7.22947 12.0386 7.54729 11.927 8.56205L11.9412 8.57234C11.8398 9.58736 12.4226 10.8633 13.2268 11.4435C14.037 12.028 14.7998 11.7099 14.9122 10.6913C14.9367 10.4694 14.8136 10.1865 14.6373 10.0593C14.461 9.9321 14.2982 10.0089 14.2738 10.2308C14.213 10.7819 13.7922 10.9838 13.3155 10.6399C12.8387 10.296 12.5212 9.56151 12.582 9.01039C12.5856 8.97782 12.586 8.94394 12.5835 8.90943Z" fill="#474747"/>
<path d="M19.0159 5.8883C19.3874 5.89216 19.6228 6.20939 19.4413 6.46174C19.0543 6.99972 18.3187 7.82322 17.1718 8.33852C16.025 8.85383 14.7408 8.93787 13.9486 8.92966C13.5771 8.92581 13.3417 8.60857 13.5232 8.35622C13.9101 7.81824 14.6458 6.99474 15.7926 6.47944C16.9395 5.96414 18.2237 5.88009 19.0159 5.8883Z" fill="white" stroke="#474747"/>
</svg>
