<svg width="25" height="24" viewBox="0 0 25 24" fill="none" xmlns="http://www.w3.org/2000/svg">
<path d="M5.94899 5.88843C5.57743 5.89228 5.34208 6.20951 5.52357 6.46186C5.91051 6.99985 6.64613 7.82334 7.793 8.33865C8.93987 8.85395 10.2241 8.93799 11.0162 8.92978C11.3878 8.92593 11.6231 8.60869 11.4416 8.35635C11.0547 7.81836 10.3191 6.99486 9.17221 6.47956C8.02534 5.96426 6.74113 5.88022 5.94899 5.88843Z" fill="#474747" stroke="white"/>
<mask id="path-2-inside-1_2794_38920" fill="white">
<path fill-rule="evenodd" clip-rule="evenodd" d="M18.2087 9.96519C17.625 9.96519 17.0633 9.74246 16.6383 9.34244L15.2412 8.02758C13.701 6.57805 11.2986 6.57805 9.7584 8.02758L8.36122 9.34252C7.93624 9.74248 7.37465 9.96519 6.79105 9.96519C5.52574 9.96519 4.5 10.9909 4.5 12.2562V15.0001C4.5 17.2093 6.29086 19.0001 8.5 19.0001H16.5C18.7091 19.0001 20.5 17.2093 20.5 15.0001V12.2565C20.5 10.9911 19.4741 9.96519 18.2087 9.96519Z"/>
</mask>
<path fill-rule="evenodd" clip-rule="evenodd" d="M18.2087 9.96519C17.625 9.96519 17.0633 9.74246 16.6383 9.34244L15.2412 8.02758C13.701 6.57805 11.2986 6.57805 9.7584 8.02758L8.36122 9.34252C7.93624 9.74248 7.37465 9.96519 6.79105 9.96519C5.52574 9.96519 4.5 10.9909 4.5 12.2562V15.0001C4.5 17.2093 6.29086 19.0001 8.5 19.0001H16.5C18.7091 19.0001 20.5 17.2093 20.5 15.0001V12.2565C20.5 10.9911 19.4741 9.96519 18.2087 9.96519Z" fill="#474747"/>
<path d="M16.6383 9.34244L16.981 8.97833L16.6383 9.34244ZM14.8985 8.39168L16.2956 9.70655L16.981 8.97833L15.5839 7.66347L14.8985 8.39168ZM8.7039 9.70662L10.1011 8.39168L9.41572 7.66347L8.01855 8.97841L8.7039 9.70662ZM5 15.0001V12.2562H4V15.0001H5ZM16.5 18.5001H8.5V19.5001H16.5V18.5001ZM20 12.2565V15.0001H21V12.2565H20ZM21 12.2565C21 10.7149 19.7503 9.46519 18.2087 9.46519V10.4652C19.198 10.4652 20 11.2672 20 12.2565H21ZM16.5 19.5001C18.9853 19.5001 21 17.4854 21 15.0001H20C20 16.9331 18.433 18.5001 16.5 18.5001V19.5001ZM4 15.0001C4 17.4854 6.01472 19.5001 8.5 19.5001V18.5001C6.567 18.5001 5 16.9331 5 15.0001H4ZM6.79105 9.46519C5.2496 9.46519 4 10.7148 4 12.2562H5C5 11.2671 5.80188 10.4652 6.79105 10.4652V9.46519ZM8.01855 8.97841C7.68632 9.29109 7.24728 9.46519 6.79105 9.46519V10.4652C7.50201 10.4652 8.18617 10.1939 8.7039 9.70662L8.01855 8.97841ZM16.2956 9.70655C16.8134 10.1939 17.4976 10.4652 18.2087 10.4652V9.46519C17.7524 9.46519 17.3133 9.29106 16.981 8.97833L16.2956 9.70655ZM15.5839 7.66347C13.8512 6.03275 11.1484 6.03275 9.41572 7.66347L10.1011 8.39168C11.4487 7.12335 13.5509 7.12334 14.8985 8.39168L15.5839 7.66347Z" fill="white" mask="url(#path-2-inside-1_2794_38920)"/>
<path fill-rule="evenodd" clip-rule="evenodd" d="M12.584 8.90945C12.6866 8.44864 13.0775 8.29963 13.5152 8.61624C13.6914 8.74363 13.854 8.66701 13.8784 8.44509C13.9028 8.22318 13.7798 7.94002 13.6036 7.81263C12.7973 7.22949 12.0391 7.5473 11.9275 8.56207L11.9417 8.57236C11.8403 9.58738 12.423 10.8633 13.2273 11.4435C14.0375 12.028 14.8003 11.71 14.9127 10.6914C14.9372 10.4695 14.8141 10.1865 14.6378 10.0593C14.4615 9.93212 14.2987 10.0089 14.2743 10.2308C14.2135 10.7819 13.7927 10.9838 13.3159 10.6399C12.8392 10.296 12.5217 9.56153 12.5825 9.01041C12.5861 8.97784 12.5865 8.94396 12.584 8.90945Z" fill="white"/>
<path d="M19.0159 5.88843C19.3874 5.89228 19.6228 6.20951 19.4413 6.46186C19.0543 6.99985 18.3187 7.82334 17.1718 8.33865C16.025 8.85395 14.7408 8.93799 13.9486 8.92978C13.5771 8.92593 13.3417 8.60869 13.5232 8.35635C13.9101 7.81836 14.6458 6.99486 15.7926 6.47956C16.9395 5.96426 18.2237 5.88022 19.0159 5.88843Z" fill="#474747" stroke="white"/>
</svg>
