<svg width="26" height="10" viewBox="0 0 26 10" fill="none" xmlns="http://www.w3.org/2000/svg">
<g id="Vector">
<path id="Vector-13" d="M20.8024 7.80268C20.5095 8.09557 20.5095 8.57044 20.8024 8.86334C21.0952 9.15623 21.5701 9.15623 21.863 8.86334L20.8024 7.80268ZM25.1963 5.53001C25.4892 5.23711 25.4892 4.76224 25.1963 4.46935C24.9035 4.17645 24.4286 4.17645 24.1357 4.46935L25.1963 5.53001ZM24.1357 5.53001C24.4286 5.8229 24.9035 5.8229 25.1963 5.53001C25.4892 5.23711 25.4892 4.76224 25.1963 4.46935L24.1357 5.53001ZM21.863 1.13601C21.5701 0.843121 21.0952 0.843121 20.8024 1.13601C20.5095 1.42891 20.5095 1.90378 20.8024 2.19667L21.863 1.13601ZM24.666 5.74968C25.0802 5.74968 25.416 5.41389 25.416 4.99968C25.416 4.58546 25.0802 4.24968 24.666 4.24968V5.74968ZM1.33268 4.24968C0.918468 4.24968 0.582684 4.58546 0.582684 4.99968C0.582684 5.41389 0.918468 5.74968 1.33268 5.74968V4.24968ZM21.863 8.86334L25.1963 5.53001L24.1357 4.46935L20.8024 7.80268L21.863 8.86334ZM25.1963 4.46935L21.863 1.13601L20.8024 2.19667L24.1357 5.53001L25.1963 4.46935ZM24.666 4.24968H1.33268V5.74968H24.666V4.24968Z" fill="#191919"/>
</g>
</svg>
